<?xml version="1.0" encoding="UTF-8" ?>
<!DOCTYPE svg PUBLIC "-//W3C//DTD SVG 1.1//EN" "http://www.w3.org/Graphics/SVG/1.1/DTD/svg11.dtd">
<svg width="663pt" height="223pt" viewBox="0 0 663 223" version="1.1" xmlns="http://www.w3.org/2000/svg">
<g id="#000000ff">
<path fill="#000000" opacity="1.00" d=" M 342.75 0.00 L 346.08 0.00 C 347.85 2.97 350.12 5.76 351.12 9.11 C 351.22 11.34 351.11 13.84 349.72 15.70 C 347.13 18.10 343.72 19.33 340.47 20.54 C 331.35 23.46 322.32 26.63 313.55 30.48 C 304.27 34.46 294.12 36.53 285.61 42.19 C 285.57 47.42 290.33 50.16 293.77 53.23 C 298.17 56.82 301.58 61.51 306.36 64.67 C 311.04 67.70 313.42 72.92 316.98 77.03 C 320.68 81.25 323.05 86.36 325.75 91.24 C 328.28 95.86 328.34 101.28 328.92 106.39 C 329.64 110.88 327.72 115.16 326.23 119.29 C 324.63 123.32 322.97 127.65 319.39 130.37 C 316.00 133.04 312.63 135.84 308.71 137.72 C 299.13 142.26 288.34 142.57 277.95 142.99 C 276.42 142.83 274.12 143.34 273.46 141.48 C 271.24 136.36 272.02 130.63 272.17 125.22 C 279.16 122.66 286.64 124.20 293.87 123.75 C 297.17 123.40 300.45 122.86 303.75 122.47 C 307.79 121.95 311.33 119.77 314.74 117.71 C 316.82 116.47 318.82 114.50 318.76 111.90 C 319.56 105.55 316.51 99.74 313.67 94.32 C 311.44 90.35 307.81 87.48 304.30 84.70 C 300.93 82.05 298.80 78.21 295.60 75.39 C 288.89 69.46 282.24 63.38 276.54 56.45 C 273.09 52.50 272.21 47.08 271.83 42.03 C 272.45 37.37 274.60 32.30 278.98 30.02 C 281.77 28.47 284.49 26.77 287.44 25.52 C 298.53 21.83 308.61 15.73 319.40 11.29 C 327.00 7.10 335.51 4.89 342.75 0.00 Z" />
<path fill="#000000" opacity="1.00" d=" M 165.50 24.45 C 168.93 23.75 171.66 26.97 173.67 29.34 C 177.64 33.66 177.47 39.81 178.94 45.15 C 181.11 53.83 181.53 63.52 177.78 71.79 C 173.20 76.50 169.01 82.22 162.56 84.44 C 156.56 86.66 151.18 90.61 144.74 91.56 C 141.51 91.95 138.98 94.21 135.90 94.99 C 129.01 95.89 122.19 97.49 115.19 97.20 C 108.84 96.98 102.92 101.19 96.60 99.28 C 90.57 97.88 84.05 98.57 78.45 95.53 C 71.72 91.39 68.60 83.56 68.42 75.90 C 68.43 68.51 65.84 60.52 69.59 53.61 C 71.21 50.75 72.16 46.95 75.28 45.36 C 77.70 45.45 80.51 47.40 80.70 50.04 C 83.59 57.48 76.68 64.36 78.07 71.81 C 83.11 78.02 91.39 80.00 98.96 81.15 C 107.63 79.60 116.37 78.49 125.03 76.82 C 133.77 76.56 141.67 72.50 149.86 69.91 C 156.19 68.06 161.95 64.80 167.57 61.44 C 169.50 59.14 167.39 55.97 166.16 53.80 C 163.53 49.12 156.87 46.38 157.70 40.19 C 159.29 34.57 159.85 27.64 165.50 24.45 Z" />
<path fill="#000000" opacity="1.00" d=" M 194.41 29.33 C 197.34 28.32 201.04 30.78 200.87 34.01 C 200.99 40.98 202.39 47.85 203.47 54.70 C 202.66 60.81 203.51 67.04 202.19 73.10 C 201.45 77.53 203.50 81.72 204.25 85.99 C 204.60 92.56 203.05 99.15 204.23 105.69 C 204.77 108.39 204.15 111.11 204.22 113.82 C 204.69 117.19 206.00 120.41 207.69 123.35 C 209.50 126.46 213.32 127.80 214.89 131.11 C 216.61 134.70 216.92 139.25 214.75 142.72 C 213.58 144.74 211.00 144.55 209.00 144.54 C 203.21 144.48 198.32 140.12 195.88 135.14 C 194.78 132.73 193.32 130.47 192.49 127.96 C 192.38 124.36 192.99 120.78 192.87 117.19 C 192.47 113.18 190.91 109.29 191.29 105.21 C 191.78 101.13 190.79 97.07 191.14 92.99 C 192.26 83.57 188.57 74.29 189.72 64.85 C 190.43 59.56 190.05 54.22 189.61 48.91 C 189.37 44.38 188.37 39.64 190.22 35.30 C 191.14 33.10 191.93 30.24 194.41 29.33 Z" />
<path fill="#000000" opacity="1.00" d=" M 234.37 64.60 C 234.68 64.58 235.29 64.52 235.59 64.50 C 237.98 66.40 240.21 68.61 241.88 71.17 C 241.87 75.80 242.50 82.23 237.63 84.74 C 234.22 85.40 230.82 86.67 227.35 86.79 C 224.51 82.89 221.44 78.21 221.99 73.20 C 224.50 68.65 229.58 66.11 234.37 64.60 Z" />
<path fill="#000000" opacity="1.00" d=" M 243.71 73.11 C 246.44 68.35 251.84 65.72 257.00 64.46 C 259.80 66.06 261.58 68.93 263.84 71.16 C 263.19 75.58 264.21 81.14 260.25 84.26 C 256.76 85.77 252.81 85.92 249.19 87.12 C 246.50 82.94 242.89 78.39 243.71 73.11 Z" />
<path fill="#000000" opacity="1.00" d=" M 101.42 106.34 C 104.51 105.01 108.30 107.69 108.27 111.02 C 108.17 117.99 110.11 124.80 111.23 131.61 C 110.23 137.46 111.49 143.43 110.30 149.25 C 109.32 153.99 111.82 158.42 112.55 162.99 C 112.82 168.01 112.21 173.02 112.32 178.04 C 112.38 180.70 113.22 183.28 113.10 185.95 C 112.28 193.00 115.49 200.63 121.50 204.56 C 125.87 208.10 127.18 215.97 123.18 220.19 C 119.03 222.40 113.47 220.94 109.98 217.99 C 106.20 215.14 104.45 210.61 102.28 206.58 C 100.80 203.96 101.88 200.83 101.73 197.99 C 102.53 192.53 99.56 187.45 99.94 182.01 C 100.20 177.98 99.19 173.99 99.55 169.97 C 100.49 160.46 96.65 151.18 97.63 141.66 C 98.12 137.13 97.87 132.57 97.38 128.05 C 97.10 122.86 95.66 117.47 97.51 112.41 C 98.34 110.19 99.07 107.40 101.42 106.34 Z" />
<path fill="#000000" opacity="1.00" d=" M 237.83 110.76 C 239.50 106.64 244.19 106.93 247.69 108.18 C 249.57 112.51 250.12 117.71 253.87 120.98 C 259.38 121.74 264.64 123.66 269.42 126.53 C 270.32 130.93 271.12 135.45 270.58 139.95 C 270.55 142.28 267.95 143.11 266.02 143.04 C 257.61 143.44 249.82 139.57 243.08 134.94 C 239.78 132.79 236.70 136.43 234.15 138.15 C 231.38 140.74 227.31 139.73 224.07 141.19 C 222.58 141.59 220.88 143.12 219.46 141.73 C 217.61 138.82 217.51 135.22 216.95 131.91 C 216.34 129.22 218.71 127.16 220.61 125.68 C 223.04 124.60 225.91 125.32 228.41 124.39 C 233.47 121.50 236.10 116.09 237.83 110.76 Z" />
<path fill="#000000" opacity="1.00" d=" M 125.86 130.07 C 127.84 124.53 133.78 121.77 138.91 119.78 C 141.33 121.81 143.60 124.01 145.88 126.18 C 145.61 130.76 147.03 136.53 142.88 139.81 C 139.49 141.30 135.72 141.75 132.26 143.13 C 129.44 139.21 125.87 135.19 125.86 130.07 Z" />
<path fill="#000000" opacity="1.00" d=" M 62.11 130.28 C 64.97 125.58 70.49 122.48 75.85 121.81 C 78.17 123.67 80.18 125.89 82.06 128.18 C 82.15 132.71 82.48 138.34 78.58 141.51 C 75.22 143.03 71.37 143.05 67.92 144.37 C 64.74 140.43 61.49 135.58 62.11 130.28 Z" />
<path fill="#000000" opacity="1.00" d=" M 31.75 137.77 C 33.09 138.52 34.83 138.92 35.51 140.46 C 37.71 144.41 38.74 148.85 39.78 153.21 C 41.09 158.72 42.64 164.27 42.53 169.98 C 42.30 175.19 43.28 180.35 43.77 185.52 C 45.18 190.17 48.03 194.25 50.88 198.12 C 52.98 201.10 56.48 202.50 59.07 204.92 C 60.95 208.50 62.08 212.69 61.80 216.74 C 61.24 219.73 57.61 219.76 55.26 220.31 C 50.85 221.45 46.72 218.88 42.90 217.06 C 36.94 213.80 34.69 207.08 30.76 202.02 C 28.06 202.41 25.51 203.45 22.85 204.04 C 17.68 205.41 12.04 204.11 7.54 201.41 C 5.36 198.93 3.75 195.99 1.93 193.25 C 0.76 190.43 0.75 187.27 0.00 184.33 L 0.00 181.57 C 2.17 176.81 4.82 172.22 8.71 168.66 C 11.94 164.57 15.73 161.02 19.89 157.90 C 23.87 155.02 20.91 148.86 24.73 145.78 C 27.48 143.47 30.29 141.15 31.75 137.77 M 15.04 176.99 C 13.44 178.48 14.43 180.74 14.39 182.63 C 18.11 184.50 22.00 188.21 26.46 186.50 C 28.98 185.81 31.79 184.01 31.35 180.99 C 30.67 177.41 28.74 173.08 25.01 171.91 C 21.39 172.75 17.70 174.33 15.04 176.99 Z" />
<path fill="#000000" opacity="1.00" d=" M 136.70 162.77 C 145.61 159.32 155.05 163.03 164.07 164.10 C 172.45 165.07 180.58 167.65 189.03 168.09 C 196.62 168.08 203.79 165.21 211.26 164.34 C 212.43 164.35 214.39 163.59 214.88 165.18 C 216.80 169.83 217.02 175.40 215.11 180.09 C 213.22 184.03 208.09 183.26 204.63 184.72 C 193.78 188.57 182.57 192.26 173.30 199.30 C 165.78 204.93 158.03 210.29 149.74 214.73 C 144.75 218.62 138.49 221.51 132.02 220.34 C 129.80 220.20 129.43 217.70 129.06 215.97 C 128.32 211.84 128.59 206.95 131.72 203.82 C 138.86 202.05 145.37 198.44 151.72 194.80 C 155.92 192.50 160.75 191.50 164.72 188.75 C 167.44 186.79 170.97 185.84 172.85 182.87 C 167.56 180.62 161.63 180.81 156.02 179.91 C 147.98 179.85 139.55 178.75 131.89 181.84 C 129.30 183.16 127.69 187.10 124.29 186.02 C 121.93 184.65 123.53 181.77 123.85 179.71 C 125.57 172.50 131.11 167.21 136.70 162.77 Z" />
<path fill="#000000" opacity="1.00" d=" M 70.47 172.44 C 71.98 169.92 75.43 168.19 78.16 169.85 C 82.50 172.43 84.36 177.40 86.11 181.87 C 88.01 187.00 90.28 192.42 89.19 198.01 C 88.29 203.26 87.01 208.63 84.28 213.25 C 81.17 216.24 76.80 217.43 72.84 218.89 C 70.53 219.25 66.54 220.34 65.78 217.19 C 64.74 213.68 64.86 209.88 65.21 206.27 C 67.40 202.90 71.19 201.17 74.72 199.56 C 74.78 198.15 74.91 196.73 74.81 195.33 C 72.95 191.35 68.03 189.25 67.56 184.58 C 66.61 180.34 68.25 176.01 70.47 172.44 Z" />
</g>
<g id="#3c6436ff">
<path fill="#3c6436" opacity="1.00" d=" M 626.08 47.08 C 633.54 45.27 641.33 45.07 648.97 45.56 C 652.59 45.82 657.00 46.87 658.53 50.60 C 660.08 53.90 656.55 56.88 657.36 60.21 C 659.12 70.90 659.39 81.73 660.30 92.51 C 660.75 98.75 660.62 105.02 660.70 111.28 C 659.49 106.65 659.70 101.83 659.56 97.09 C 658.75 95.88 657.84 94.72 657.29 93.37 C 657.25 90.55 658.76 87.78 657.90 84.95 C 655.57 76.95 656.40 68.52 655.87 60.29 C 655.59 56.77 656.15 52.35 653.25 49.78 C 645.24 46.38 636.26 47.78 627.89 48.71 C 624.15 48.99 620.27 51.59 619.63 55.45 C 619.61 59.58 621.21 63.49 621.81 67.53 C 622.68 73.73 623.89 80.15 622.33 86.34 C 620.07 80.59 621.83 74.29 620.42 68.40 C 619.45 63.41 616.43 58.63 617.47 53.41 C 618.38 49.51 622.66 48.06 626.08 47.08 Z" />
</g>
<g id="#548649ff">
<path fill="#548649" opacity="1.00" d=" M 627.89 48.71 C 636.26 47.78 645.24 46.38 653.25 49.78 C 656.15 52.35 655.59 56.77 655.87 60.29 C 656.40 68.52 655.57 76.95 657.90 84.95 C 658.76 87.78 657.25 90.55 657.29 93.37 C 657.84 94.72 658.75 95.88 659.56 97.09 C 658.97 102.94 656.33 108.88 658.44 114.72 C 660.33 120.31 658.34 126.19 659.06 131.91 C 659.96 139.93 660.94 148.03 660.05 156.10 C 659.30 162.62 659.21 169.23 660.34 175.72 C 661.13 179.43 660.10 183.12 658.87 186.61 C 657.49 183.58 658.41 180.50 659.19 177.49 C 656.46 173.91 652.04 172.36 647.88 171.13 C 646.40 170.86 645.75 169.46 645.11 168.28 C 644.53 167.14 643.94 166.02 643.36 164.89 C 644.55 162.75 646.33 160.62 646.16 158.03 C 645.75 153.91 644.25 150.01 642.70 146.21 C 641.41 146.44 640.13 146.67 638.85 146.90 C 638.04 154.72 641.14 162.36 640.55 170.23 C 638.98 169.11 637.54 167.72 635.71 167.04 C 633.40 166.59 631.06 167.23 628.77 167.52 C 628.18 169.42 627.56 171.32 627.06 173.25 C 626.83 164.06 626.77 154.85 627.38 145.67 C 627.81 139.07 626.30 132.56 625.90 126.00 C 625.32 119.87 625.55 113.43 622.74 107.78 L 622.90 107.30 C 625.17 100.76 626.67 92.77 622.24 86.77 L 622.33 86.34 C 623.89 80.15 622.68 73.73 621.81 67.53 C 621.21 63.49 619.61 59.58 619.63 55.45 C 620.27 51.59 624.15 48.99 627.89 48.71 M 639.08 60.74 C 634.71 60.97 630.26 60.95 626.02 62.18 C 625.97 62.61 625.87 63.46 625.82 63.88 C 628.61 65.51 631.92 64.92 634.98 64.77 C 640.97 64.20 647.06 64.43 652.94 62.93 C 652.90 62.22 652.83 60.80 652.79 60.09 C 648.20 59.88 643.65 60.55 639.08 60.74 M 628.64 86.77 C 626.99 86.97 626.45 88.69 625.80 89.93 C 635.19 91.27 645.63 92.92 654.24 87.83 C 654.17 86.58 654.04 85.33 653.86 84.08 C 645.50 85.48 637.02 85.70 628.64 86.77 M 640.61 99.49 C 639.85 102.75 639.06 106.15 639.48 109.51 C 640.47 110.84 642.85 111.70 643.88 109.94 C 645.92 106.35 645.61 102.01 643.98 98.33 C 642.78 98.54 641.66 98.93 640.61 99.49 M 639.76 123.02 C 639.61 126.46 638.53 129.75 637.98 133.13 C 641.41 133.80 644.80 130.46 644.03 127.03 C 643.06 122.83 644.28 118.64 644.19 114.42 C 640.65 115.61 640.05 119.82 639.76 123.02 Z" />
</g>
<g id="#127eddff">
<path fill="#127edd" opacity="1.00" d=" M 462.44 56.41 C 467.61 54.06 473.39 53.77 478.95 53.10 C 480.21 52.97 482.19 52.96 482.64 54.47 C 483.44 58.24 480.85 61.82 481.76 65.60 C 476.18 66.62 470.50 66.21 464.88 65.93 C 464.32 69.55 464.63 73.54 462.36 76.67 C 460.80 69.97 463.31 63.19 462.44 56.41 Z" />
</g>
<g id="#cc4076ff">
<path fill="#cc4076" opacity="1.00" d=" M 493.47 57.61 C 499.57 56.20 505.85 55.94 512.02 54.99 C 515.23 54.14 518.89 56.00 520.11 59.08 C 520.24 63.70 519.45 68.31 519.71 72.94 C 513.48 73.34 507.25 73.81 501.01 73.75 C 498.27 73.89 495.36 73.83 492.90 75.22 C 492.57 76.49 493.52 77.89 494.91 77.54 C 503.02 76.07 511.33 76.96 519.45 75.34 C 519.90 80.84 520.08 86.35 520.43 91.86 C 520.45 95.67 520.14 99.47 519.78 103.26 C 519.17 100.18 518.92 97.00 517.87 94.03 C 516.84 92.07 515.08 90.65 513.43 89.24 C 510.96 88.16 508.37 87.41 505.81 86.61 C 506.61 85.38 507.31 84.09 508.03 82.80 C 511.20 82.04 514.37 81.26 517.50 80.35 C 512.48 78.18 507.15 80.25 501.99 80.39 C 498.34 80.68 494.45 80.09 491.07 81.83 C 491.32 78.19 491.15 74.55 491.09 70.91 C 491.20 67.34 491.43 63.77 491.35 60.18 C 491.17 58.88 492.22 57.78 493.47 57.61 Z" />
</g>
<g id="#0ca57eff">
<path fill="#0ca57e" opacity="1.00" d=" M 594.12 56.85 C 596.97 55.60 600.47 55.30 603.44 56.24 C 603.60 56.60 603.90 57.33 604.06 57.69 C 598.51 57.16 593.33 59.51 588.29 61.45 C 589.33 63.97 590.36 66.50 591.34 69.04 C 586.43 69.27 581.45 69.48 576.75 71.05 C 579.85 72.87 583.52 72.69 586.98 72.98 C 594.41 73.46 602.02 74.43 609.33 72.48 C 609.72 73.22 610.12 73.96 610.53 74.70 C 600.52 74.07 590.55 75.42 580.65 76.67 C 585.13 78.96 590.50 77.91 595.36 78.64 C 594.78 81.23 594.48 83.94 593.35 86.37 C 592.25 87.78 590.74 88.79 589.34 89.86 C 586.76 87.60 583.95 85.60 580.90 84.01 C 580.15 88.40 577.97 92.59 578.45 97.14 C 578.58 99.43 578.81 101.71 578.96 104.01 C 579.24 111.28 579.82 118.53 580.15 125.80 C 580.25 127.95 580.48 130.09 580.60 132.24 C 581.00 136.70 578.59 140.98 579.69 145.44 C 582.14 156.50 577.53 167.37 576.26 178.25 C 575.60 181.20 577.97 183.46 580.48 184.45 C 581.32 182.31 581.58 179.78 583.12 177.99 C 585.62 175.99 588.34 174.26 590.57 171.93 C 588.47 171.06 586.35 170.22 584.25 169.39 C 586.43 168.35 588.64 167.37 590.90 166.51 C 591.66 170.20 593.32 174.09 591.15 177.65 C 586.54 179.69 583.88 184.18 579.89 187.06 C 577.75 188.58 576.47 190.91 575.28 193.19 L 575.03 192.42 C 573.73 188.74 574.75 184.81 574.66 181.02 C 574.64 171.30 576.82 161.75 576.73 152.02 C 578.21 139.71 577.46 127.30 577.90 114.94 C 577.16 103.97 577.04 92.97 576.79 81.98 C 576.62 76.88 574.65 72.08 573.88 67.08 C 574.37 65.52 575.16 64.07 575.79 62.56 C 581.89 60.64 588.45 59.93 594.12 56.85 Z" />
</g>
<g id="#0232179a">
<path fill="#023217" opacity="0.60" d=" M 580.35 58.20 C 580.64 56.19 584.49 56.23 585.77 57.48 C 584.02 58.08 582.19 58.36 580.35 58.20 Z" />
</g>
<g id="#048052ff">
<path fill="#048052" opacity="1.00" d=" M 585.77 57.48 C 588.47 56.71 591.33 56.70 594.12 56.85 C 588.45 59.93 581.89 60.64 575.79 62.56 L 575.10 62.73 C 575.30 61.34 575.51 59.96 575.72 58.58 C 577.25 58.34 578.79 58.14 580.35 58.20 C 582.19 58.36 584.02 58.08 585.77 57.48 Z" />
</g>
<g id="#42c4a2ff">
<path fill="#42c4a2" opacity="1.00" d=" M 588.29 61.45 C 593.33 59.51 598.51 57.16 604.06 57.69 C 604.51 57.90 605.42 58.34 605.87 58.56 C 608.82 59.95 611.76 61.68 613.34 64.67 C 612.25 65.85 611.17 67.04 610.11 68.24 C 603.86 68.62 597.61 69.05 591.34 69.04 C 590.36 66.50 589.33 63.97 588.29 61.45 Z" />
</g>
<g id="#129e6aff">
<path fill="#129e6a" opacity="1.00" d=" M 605.87 58.56 C 608.31 57.89 611.28 56.56 613.58 58.29 C 614.55 60.39 614.23 62.75 614.08 64.98 C 613.55 69.31 614.50 73.64 614.24 77.99 C 613.91 83.77 613.96 89.56 613.74 95.34 C 610.57 89.26 614.25 82.26 611.30 76.19 C 611.11 75.82 610.72 75.07 610.53 74.70 C 610.12 73.96 609.72 73.22 609.33 72.48 C 610.70 71.59 611.79 70.33 612.00 68.66 C 611.53 68.55 610.58 68.34 610.11 68.24 C 611.17 67.04 612.25 65.85 613.34 64.67 C 611.76 61.68 608.82 59.95 605.87 58.56 Z" />
</g>
<g id="#fff6edff">
<path fill="#fff6ed" opacity="1.00" d=" M 639.08 60.74 C 643.65 60.55 648.20 59.88 652.79 60.09 C 652.83 60.80 652.90 62.22 652.94 62.93 C 647.06 64.43 640.97 64.20 634.98 64.77 C 631.92 64.92 628.61 65.51 625.82 63.88 C 625.87 63.46 625.97 62.61 626.02 62.18 C 630.26 60.95 634.71 60.97 639.08 60.74 Z" />
</g>
<g id="#00beceff">
<path fill="#00bece" opacity="1.00" d=" M 364.80 67.77 C 368.74 65.40 373.19 63.00 377.95 63.56 C 381.25 66.61 383.27 70.82 385.14 74.85 C 388.14 81.90 391.26 88.97 395.67 95.27 C 396.98 97.14 398.15 99.12 398.87 101.30 C 394.20 96.06 390.27 90.16 387.17 83.86 C 385.12 80.99 382.41 78.55 381.44 75.03 C 379.18 75.91 376.94 76.87 374.90 78.19 C 374.11 76.44 373.34 74.69 372.57 72.93 C 370.81 72.81 369.04 72.69 367.27 72.57 C 366.47 76.34 365.94 80.16 365.86 84.01 C 364.20 85.10 362.70 86.43 361.43 87.94 C 358.76 85.13 356.24 82.19 353.28 79.67 C 351.50 78.27 352.23 75.14 354.11 74.15 C 357.63 71.96 361.31 70.02 364.80 67.77 Z" />
</g>
<g id="#ffffffff">
<path fill="#ffffff" opacity="1.00" d=" M 481.76 65.60 C 481.67 66.14 481.56 66.67 481.44 67.20 C 479.70 69.10 478.58 71.41 477.51 73.72 C 478.87 75.14 480.17 76.62 481.43 78.14 C 474.83 78.71 468.14 78.65 461.54 78.15 C 461.75 77.78 462.16 77.04 462.36 76.67 C 464.63 73.54 464.32 69.55 464.88 65.93 C 470.50 66.21 476.18 66.62 481.76 65.60 Z" />
<path fill="#ffffff" opacity="1.00" d=" M 501.99 80.39 C 507.15 80.25 512.48 78.18 517.50 80.35 C 514.37 81.26 511.20 82.04 508.03 82.80 C 502.36 83.25 496.64 83.52 490.97 82.86 L 491.07 81.83 C 494.45 80.09 498.34 80.68 501.99 80.39 Z" />
<path fill="#ffffff" opacity="1.00" d=" M 470.35 94.81 C 471.15 94.18 471.96 93.56 472.77 92.95 C 474.26 96.47 474.57 100.27 474.34 104.05 C 473.96 110.96 476.86 117.42 477.49 124.22 C 477.79 128.46 478.59 132.67 478.52 136.94 C 478.23 140.93 478.52 144.92 478.90 148.89 C 479.16 153.24 478.48 157.55 477.77 161.82 C 476.49 168.86 477.99 176.16 475.89 183.08 C 474.57 182.73 473.26 182.35 471.95 181.99 C 472.13 177.24 472.55 172.49 472.66 167.73 C 472.67 167.22 472.67 166.21 472.68 165.71 C 473.53 159.85 474.71 153.98 474.34 148.04 C 474.21 142.26 473.06 136.58 472.35 130.86 C 471.99 126.24 470.93 121.66 471.20 117.00 C 471.79 109.59 470.34 102.22 470.35 94.81 Z" />
<path fill="#ffffff" opacity="1.00" d=" M 356.39 124.37 C 359.80 122.32 362.21 126.32 364.22 128.45 C 367.74 138.72 372.22 148.63 376.35 158.66 C 376.91 159.84 377.46 161.03 378.01 162.22 C 380.32 167.91 382.63 173.62 384.46 179.48 C 385.57 184.39 386.78 189.27 388.44 194.03 C 388.78 195.31 389.12 196.60 389.44 197.90 C 387.24 198.97 385.04 202.52 382.44 200.88 C 378.64 191.74 374.81 182.58 371.92 173.09 C 369.26 164.57 365.93 156.29 363.24 147.79 C 362.59 145.84 361.93 143.90 361.25 141.97 C 359.94 138.00 358.11 134.23 356.73 130.29 C 356.15 128.39 355.40 126.27 356.39 124.37 Z" />
<path fill="#ffffff" opacity="1.00" d=" M 497.37 184.00 C 500.84 183.55 504.34 183.86 507.82 184.03 C 511.41 184.17 515.01 184.25 518.57 184.87 C 517.29 188.77 511.99 186.80 508.83 187.57 C 512.19 189.00 516.08 189.81 518.41 192.87 C 511.45 193.82 504.40 193.82 497.40 193.50 C 497.49 190.33 497.45 187.17 497.37 184.00 Z" />
<path fill="#ffffff" opacity="1.00" d=" M 466.34 194.92 C 471.15 194.81 476.04 194.88 480.71 196.23 C 479.96 197.46 479.18 198.68 478.55 199.98 C 479.95 201.36 481.74 202.27 483.41 203.29 C 483.46 203.96 483.55 205.30 483.60 205.96 C 479.70 206.12 475.83 206.62 471.94 206.91 C 470.12 206.88 468.31 206.71 466.51 206.53 C 466.91 202.66 466.32 198.79 466.34 194.92 Z" />
</g>
<g id="#065ec7ff">
<path fill="#065ec7" opacity="1.00" d=" M 477.51 73.72 C 478.58 71.41 479.70 69.10 481.44 67.20 C 483.54 83.80 482.99 100.59 483.85 117.27 C 482.79 110.39 481.79 103.49 480.64 96.62 C 479.12 97.02 477.59 97.44 476.08 97.86 C 475.47 94.88 474.61 91.96 473.72 89.06 C 472.63 89.25 471.55 89.46 470.48 89.68 C 467.34 90.67 464.79 92.82 462.38 94.97 C 461.92 89.37 461.84 83.75 461.54 78.15 C 468.14 78.65 474.83 78.71 481.43 78.14 C 480.17 76.62 478.87 75.14 477.51 73.72 Z" />
</g>
<g id="#fefefeff">
<path fill="#fefefe" opacity="1.00" d=" M 591.34 69.04 C 597.61 69.05 603.86 68.62 610.11 68.24 C 610.58 68.34 611.53 68.55 612.00 68.66 C 611.79 70.33 610.70 71.59 609.33 72.48 C 602.02 74.43 594.41 73.46 586.98 72.98 C 583.52 72.69 579.85 72.87 576.75 71.05 C 581.45 69.48 586.43 69.27 591.34 69.04 Z" />
<path fill="#fefefe" opacity="1.00" d=" M 580.65 76.67 C 590.55 75.42 600.52 74.07 610.53 74.70 C 610.72 75.07 611.11 75.82 611.30 76.19 C 610.94 77.16 610.55 78.12 610.13 79.06 C 605.21 78.94 600.28 78.86 595.36 78.64 C 590.50 77.91 585.13 78.96 580.65 76.67 Z" />
<path fill="#fefefe" opacity="1.00" d=" M 501.81 90.22 C 502.83 88.72 504.46 87.79 505.81 86.61 C 508.37 87.41 510.96 88.16 513.43 89.24 C 512.75 91.90 511.07 94.07 509.75 96.41 C 509.60 99.28 510.55 102.09 510.54 104.96 C 510.75 108.69 509.22 112.22 509.01 115.91 C 509.42 117.81 510.30 119.56 510.99 121.37 C 512.45 124.54 512.47 128.09 511.01 131.27 C 508.80 129.35 506.72 127.28 505.03 124.90 C 503.32 121.55 501.51 117.93 501.87 114.07 C 502.53 110.93 504.55 108.23 504.95 105.02 C 505.06 101.69 503.40 98.66 502.06 95.71 C 501.85 93.90 501.28 92.02 501.81 90.22 Z" />
<path fill="#fefefe" opacity="1.00" d=" M 594.81 92.83 C 595.96 93.32 597.11 93.83 598.29 94.28 C 598.78 98.59 599.26 102.93 598.84 107.27 C 598.58 108.99 598.26 110.70 598.02 112.42 C 596.67 118.83 597.41 125.40 597.27 131.90 C 596.78 136.42 596.20 140.97 596.42 145.53 C 596.69 149.38 597.64 153.16 597.71 157.03 C 597.83 161.29 595.28 165.28 596.24 169.58 C 596.88 173.03 597.41 177.15 594.09 179.44 C 593.09 178.85 592.11 178.25 591.15 177.65 C 593.32 174.09 591.66 170.20 590.90 166.51 C 591.44 162.90 592.44 159.32 592.18 155.63 C 590.71 146.27 591.55 136.83 591.84 127.43 C 591.71 122.80 590.99 118.17 591.46 113.53 C 592.13 110.24 592.80 106.94 593.10 103.59 C 593.42 99.96 593.84 96.34 594.81 92.83 Z" />
<path fill="#fefefe" opacity="1.00" d=" M 544.98 99.02 C 551.34 98.13 557.78 96.66 564.21 97.90 C 564.12 98.59 563.95 99.96 563.86 100.65 C 554.88 102.09 545.76 101.88 536.70 102.01 C 535.20 101.98 533.71 101.94 532.22 101.90 L 532.42 101.19 C 536.56 100.22 540.77 99.64 544.98 99.02 Z" />
<path fill="#fefefe" opacity="1.00" d=" M 545.46 121.89 C 546.93 120.25 548.45 118.65 549.98 117.06 C 550.63 117.19 551.92 117.44 552.57 117.57 C 552.72 120.25 552.82 122.93 552.62 125.61 C 551.91 131.90 551.77 138.28 553.05 144.51 L 553.16 145.25 C 551.67 150.87 550.89 156.78 551.74 162.58 C 551.82 163.62 551.91 164.66 551.99 165.70 C 550.64 167.15 549.29 168.59 547.96 170.05 C 548.35 171.83 548.75 173.62 549.07 175.42 C 549.65 179.48 548.39 183.87 550.43 187.63 C 551.10 189.08 551.75 190.54 552.36 192.03 C 550.54 191.80 548.62 191.89 546.93 191.12 C 546.13 187.96 545.57 184.75 545.01 181.55 C 544.86 178.62 544.71 175.70 544.21 172.81 C 543.76 170.50 543.45 168.01 544.92 165.98 C 547.11 162.49 547.40 158.31 548.05 154.34 C 548.84 148.42 547.13 142.56 546.89 136.67 L 546.97 135.67 C 547.05 131.10 547.86 126.00 545.46 121.89 Z" />
<path fill="#fefefe" opacity="1.00" d=" M 335.66 191.47 C 336.42 190.18 337.19 188.90 337.99 187.64 L 338.80 188.01 C 342.13 196.36 340.15 205.53 339.60 214.18 C 337.70 213.95 337.92 211.64 337.73 210.26 C 337.52 203.95 336.98 197.65 335.66 191.47 Z" />
<path fill="#fefefe" opacity="1.00" d=" M 217.90 188.99 C 218.68 188.98 220.23 188.96 221.01 188.95 C 222.52 197.64 223.20 206.69 221.76 215.43 L 221.42 216.10 L 221.00 215.25 C 220.35 212.16 219.87 209.05 219.29 205.95 C 218.24 200.37 216.76 194.69 217.90 188.99 Z" />
<path fill="#fefefe" opacity="1.00" d=" M 607.07 197.30 C 609.27 196.94 611.49 196.46 613.73 196.84 C 612.62 199.11 610.78 201.26 608.01 201.12 C 597.97 201.48 587.91 201.29 577.89 200.64 C 577.49 200.60 576.71 200.51 576.31 200.47 C 576.35 199.61 576.41 198.75 576.47 197.89 C 579.81 197.76 583.14 197.49 586.48 197.32 C 589.90 197.20 593.33 197.17 596.75 197.25 C 600.19 197.34 603.65 197.88 607.07 197.30 Z" />
<path fill="#fefefe" opacity="1.00" d=" M 241.61 198.25 C 250.96 198.71 260.47 200.89 269.69 198.32 C 270.62 198.44 271.54 198.61 272.46 198.78 C 278.00 199.70 283.66 200.38 289.28 200.06 C 290.79 199.94 292.31 199.72 293.84 199.86 C 296.28 200.65 298.19 203.13 300.92 202.84 C 304.88 202.44 308.83 201.89 312.82 202.03 C 316.86 202.43 320.43 200.23 324.35 199.75 C 323.92 201.25 323.54 202.77 323.14 204.29 C 314.21 205.50 305.21 205.85 296.27 207.01 C 294.78 206.05 293.38 204.87 291.68 204.32 C 283.33 203.05 274.78 201.97 266.41 203.76 C 264.77 203.88 263.13 203.88 261.49 203.83 C 255.71 203.52 249.87 203.43 244.16 204.50 C 243.82 204.49 243.12 204.46 242.77 204.45 C 241.77 203.07 240.81 201.66 239.86 200.26 C 240.44 199.59 241.03 198.92 241.61 198.25 Z" />
<path fill="#fefefe" opacity="1.00" d=" M 536.74 204.07 C 546.60 205.18 556.36 201.54 566.15 203.16 C 566.04 203.63 565.81 204.58 565.70 205.05 C 555.62 208.11 545.09 205.76 534.79 206.21 L 534.78 205.42 C 535.27 205.08 536.25 204.41 536.74 204.07 Z" />
<path fill="#fefefe" opacity="1.00" d=" M 605.06 204.04 C 607.37 203.96 609.67 203.75 611.98 203.66 C 611.51 205.14 611.51 207.23 609.70 207.76 C 605.38 208.78 600.90 207.75 596.53 208.30 C 589.58 209.07 582.55 210.45 575.56 209.22 C 575.83 208.12 576.12 207.03 576.43 205.94 C 586.03 206.25 595.48 203.99 605.06 204.04 Z" />
</g>
<g id="#c93668ff">
<path fill="#c93668" opacity="1.00" d=" M 490.28 90.00 C 490.21 83.63 490.20 77.24 491.09 70.91 C 491.15 74.55 491.32 78.19 491.07 81.83 L 490.97 82.86 C 496.64 83.52 502.36 83.25 508.03 82.80 C 507.31 84.09 506.61 85.38 505.81 86.61 C 504.46 87.79 502.83 88.72 501.81 90.22 C 501.28 92.02 501.85 93.90 502.06 95.71 C 501.97 96.41 501.80 97.81 501.72 98.51 C 499.96 98.56 498.21 98.61 496.46 98.67 C 496.05 101.73 495.19 104.90 495.95 107.98 C 497.18 110.66 499.33 112.76 501.18 115.01 C 499.70 116.83 498.21 118.64 496.71 120.44 C 498.57 123.02 500.88 125.23 503.41 127.16 C 502.13 129.15 500.59 131.09 500.00 133.42 C 500.03 134.96 500.50 136.44 500.85 137.93 C 499.13 140.59 497.60 143.41 497.09 146.57 C 495.26 147.86 493.37 149.06 491.44 150.16 C 491.26 156.14 491.39 162.13 491.03 168.11 C 490.09 159.77 490.26 151.37 490.29 143.00 C 489.75 125.34 490.12 107.67 490.28 90.00 Z" />
</g>
<g id="#35e9dcff">
<path fill="#35e9dc" opacity="1.00" d=" M 367.27 72.57 C 369.04 72.69 370.81 72.81 372.57 72.93 C 373.34 74.69 374.11 76.44 374.90 78.19 C 371.95 80.23 368.94 82.17 365.86 84.01 C 365.94 80.16 366.47 76.34 367.27 72.57 Z" />
</g>
<g id="#e0ffebff">
<path fill="#e0ffeb" opacity="1.00" d=" M 374.90 78.19 C 376.94 76.87 379.18 75.91 381.44 75.03 C 382.41 78.55 385.12 80.99 387.17 83.86 C 381.69 88.09 375.88 92.09 369.14 93.99 C 369.56 92.28 370.00 90.57 370.45 88.86 C 367.87 89.13 365.30 89.44 362.73 89.74 L 361.91 89.83 C 361.79 89.36 361.55 88.41 361.43 87.94 C 362.70 86.43 364.20 85.10 365.86 84.01 C 368.94 82.17 371.95 80.23 374.90 78.19 Z" />
<path fill="#e0ffeb" opacity="1.00" d=" M 439.93 190.90 C 443.83 188.89 447.12 185.62 451.51 184.64 C 451.54 186.96 451.43 189.37 452.59 191.48 C 453.20 193.26 453.68 195.09 454.17 196.91 C 447.54 200.77 440.79 204.45 434.17 208.33 C 433.89 208.16 433.33 207.81 433.05 207.64 C 433.90 206.67 434.77 205.70 435.64 204.74 C 435.20 202.90 434.82 201.04 434.53 199.17 C 432.54 198.89 430.55 198.59 428.58 198.28 C 431.70 194.90 435.94 193.02 439.93 190.90 Z" />
</g>
<g id="#1cbb95ff">
<path fill="#1cbb95" opacity="1.00" d=" M 611.30 76.19 C 614.25 82.26 610.57 89.26 613.74 95.34 C 614.27 98.10 614.18 100.97 613.85 103.75 C 611.47 114.64 614.29 126.09 611.11 136.85 C 605.72 138.83 601.04 142.21 596.42 145.53 C 596.20 140.97 596.78 136.42 597.27 131.90 C 597.95 128.68 599.49 125.76 601.87 123.47 C 600.70 122.28 599.55 121.09 598.42 119.88 C 598.43 117.39 598.26 114.90 598.02 112.42 C 598.26 110.70 598.58 108.99 598.84 107.27 C 600.07 106.39 601.31 105.50 602.55 104.61 C 602.63 103.17 602.72 101.72 602.81 100.27 C 604.24 99.97 605.68 99.66 607.13 99.41 C 607.66 99.44 608.71 99.51 609.23 99.55 C 605.69 106.50 604.15 115.55 609.28 122.17 C 610.20 121.43 611.19 120.74 611.96 119.83 C 611.89 116.79 610.41 114.00 610.17 110.99 C 610.40 107.87 611.69 104.92 611.80 101.78 C 611.97 97.43 610.90 93.17 609.83 89.00 C 607.90 88.37 605.70 88.12 604.12 86.78 C 603.23 85.33 602.68 83.72 602.06 82.16 C 603.76 82.56 605.47 82.99 607.17 83.42 C 608.19 81.99 609.20 80.55 610.13 79.06 C 610.55 78.12 610.94 77.16 611.30 76.19 Z" />
</g>
<g id="#44c4a3ff">
<path fill="#44c4a3" opacity="1.00" d=" M 595.36 78.64 C 600.28 78.86 605.21 78.94 610.13 79.06 C 609.20 80.55 608.19 81.99 607.17 83.42 C 605.47 82.99 603.76 82.56 602.06 82.16 C 602.68 83.72 603.23 85.33 604.12 86.78 C 605.70 88.12 607.90 88.37 609.83 89.00 C 610.90 93.17 611.97 97.43 611.80 101.78 C 611.69 104.92 610.40 107.87 610.17 110.99 C 610.41 114.00 611.89 116.79 611.96 119.83 C 611.19 120.74 610.20 121.43 609.28 122.17 C 604.15 115.55 605.69 106.50 609.23 99.55 C 608.71 99.51 607.66 99.44 607.13 99.41 C 606.19 97.90 605.52 96.00 603.90 95.09 C 602.06 94.58 600.16 94.54 598.29 94.28 C 597.11 93.83 595.96 93.32 594.81 92.83 C 593.84 96.34 593.42 99.96 593.10 103.59 C 589.42 105.44 585.98 107.72 582.50 109.91 C 582.21 113.14 582.14 116.45 583.16 119.57 C 584.76 123.35 587.60 126.68 591.84 127.43 C 591.55 136.83 590.71 146.27 592.18 155.63 C 590.95 155.91 589.74 156.25 588.56 156.65 C 586.55 159.69 585.65 163.31 583.93 166.52 C 583.34 163.94 582.79 161.24 583.40 158.60 C 583.98 155.92 586.18 154.02 587.27 151.57 C 587.14 149.31 586.06 147.18 586.22 144.89 C 586.37 142.25 586.84 139.64 587.16 137.02 C 585.38 137.62 583.60 138.22 581.83 138.84 C 582.44 136.65 583.34 134.49 583.43 132.20 C 583.00 129.80 581.37 127.84 580.15 125.80 C 579.82 118.53 579.24 111.28 578.96 104.01 C 582.14 102.34 585.13 100.32 587.86 97.99 C 587.15 96.74 586.44 95.50 585.74 94.26 C 583.76 94.94 581.80 95.63 579.85 96.34 C 579.63 95.17 579.41 93.99 579.20 92.82 C 582.41 90.97 586.63 92.91 589.34 89.86 C 590.74 88.79 592.25 87.78 593.35 86.37 C 594.48 83.94 594.78 81.23 595.36 78.64 Z" />
</g>
<g id="#fc594cff">
<path fill="#fc594c" opacity="1.00" d=" M 532.00 84.51 C 538.81 84.49 545.55 83.68 552.24 82.52 C 546.88 84.45 542.36 87.94 538.27 91.81 C 536.28 90.50 534.44 88.75 532.09 88.17 C 530.93 88.57 529.84 89.13 528.75 89.66 C 530.23 93.33 533.72 96.97 532.42 101.19 L 532.22 101.90 C 531.00 105.23 531.23 108.80 532.15 112.18 C 534.43 111.53 536.67 110.73 538.84 109.77 C 540.07 112.60 541.78 115.22 544.25 117.12 C 544.06 118.04 543.87 118.96 543.68 119.89 C 544.28 120.55 544.88 121.21 545.46 121.89 C 547.86 126.00 547.05 131.10 546.97 135.67 C 542.77 137.43 538.30 138.90 534.71 141.81 C 532.86 146.83 533.80 152.60 530.98 157.38 C 530.37 148.59 531.37 139.74 530.24 130.97 C 529.47 118.70 529.25 106.39 529.28 94.10 C 528.23 91.96 526.28 89.80 527.22 87.25 C 527.44 84.89 530.07 84.38 532.00 84.51 Z" />
<path fill="#fc594c" opacity="1.00" d=" M 244.16 204.50 C 249.87 203.43 255.71 203.52 261.49 203.83 C 263.25 208.43 265.53 215.06 271.49 214.81 C 275.81 215.14 280.06 215.96 284.33 216.67 C 274.93 216.60 265.52 216.80 256.12 216.48 C 249.57 216.50 242.90 216.03 236.48 217.65 C 238.04 217.99 239.61 218.29 241.19 218.57 C 231.42 218.89 221.64 218.78 211.87 218.56 L 212.17 217.70 C 215.01 216.55 217.99 215.81 221.00 215.25 L 221.42 216.10 C 225.43 217.40 229.70 217.08 233.77 216.29 C 233.08 214.31 232.41 212.33 231.72 210.35 C 234.18 209.31 236.59 208.12 239.15 207.32 C 241.14 206.53 242.97 208.11 244.76 208.78 C 244.55 207.35 244.35 205.92 244.16 204.50 Z" />
</g>
<g id="#fd9173ff">
<path fill="#fd9173" opacity="1.00" d=" M 552.24 82.52 C 555.77 82.69 559.31 82.87 562.83 83.19 C 564.14 83.29 565.04 84.43 565.88 85.32 C 566.16 87.61 564.70 89.68 564.58 91.95 C 563.55 89.60 562.87 87.02 561.22 85.01 C 556.07 83.53 550.09 85.01 546.66 89.27 C 548.37 90.34 550.01 91.52 551.53 92.85 C 545.80 93.46 539.94 93.76 534.48 95.76 C 537.62 96.00 540.77 96.01 543.92 95.91 C 544.27 96.94 544.62 97.98 544.98 99.02 C 540.77 99.64 536.56 100.22 532.42 101.19 C 533.72 96.97 530.23 93.33 528.75 89.66 C 529.84 89.13 530.93 88.57 532.09 88.17 C 534.44 88.75 536.28 90.50 538.27 91.81 C 542.36 87.94 546.88 84.45 552.24 82.52 Z" />
</g>
<g id="#7cffdbff">
<path fill="#7cffdb" opacity="1.00" d=" M 369.14 93.99 C 375.88 92.09 381.69 88.09 387.17 83.86 C 390.27 90.16 394.20 96.06 398.87 101.30 L 399.24 101.85 C 399.59 105.64 400.79 109.27 402.67 112.56 C 399.93 112.55 397.20 112.63 394.48 112.84 C 391.07 109.94 388.59 106.19 386.57 102.23 C 385.32 102.58 384.07 102.94 382.83 103.29 C 382.52 110.02 389.01 113.63 392.12 118.76 C 393.56 123.05 393.45 127.89 396.12 131.75 C 393.37 131.99 390.50 132.91 387.79 132.15 C 384.09 129.01 382.13 124.31 378.59 120.97 C 377.65 119.92 377.05 118.60 376.78 117.23 C 376.48 114.02 375.17 111.09 372.95 108.76 C 371.44 106.57 370.53 104.04 369.31 101.69 C 367.48 97.51 364.61 93.89 362.73 89.74 C 365.30 89.44 367.87 89.13 370.45 88.86 C 370.00 90.57 369.56 92.28 369.14 93.99 Z" />
</g>
<g id="#feb896ff">
<path fill="#feb896" opacity="1.00" d=" M 546.66 89.27 C 550.09 85.01 556.07 83.53 561.22 85.01 C 562.87 87.02 563.55 89.60 564.58 91.95 C 564.79 92.39 565.19 93.28 565.40 93.73 C 560.82 92.96 556.17 92.71 551.53 92.85 C 550.01 91.52 548.37 90.34 546.66 89.27 Z" />
</g>
<g id="#1fb994ff">
<path fill="#1fb994" opacity="1.00" d=" M 580.90 84.01 C 583.95 85.60 586.76 87.60 589.34 89.86 C 586.63 92.91 582.41 90.97 579.20 92.82 C 579.41 93.99 579.63 95.17 579.85 96.34 C 581.80 95.63 583.76 94.94 585.74 94.26 C 586.44 95.50 587.15 96.74 587.86 97.99 C 585.13 100.32 582.14 102.34 578.96 104.01 C 578.81 101.71 578.58 99.43 578.45 97.14 C 577.97 92.59 580.15 88.40 580.90 84.01 Z" />
</g>
<g id="#fff9eeff">
<path fill="#fff9ee" opacity="1.00" d=" M 628.64 86.77 C 637.02 85.70 645.50 85.48 653.86 84.08 C 654.04 85.33 654.17 86.58 654.24 87.83 C 645.63 92.92 635.19 91.27 625.80 89.93 C 626.45 88.69 626.99 86.97 628.64 86.77 Z" />
</g>
<g id="#3d6135ef">
<path fill="#3d6135" opacity="0.94" d=" M 622.24 86.77 C 626.67 92.77 625.17 100.76 622.90 107.30 C 621.38 103.97 623.11 100.43 622.96 96.99 C 622.82 93.58 622.07 90.21 622.24 86.77 Z" />
</g>
<g id="#3d9eeeff">
<path fill="#3d9eee" opacity="1.00" d=" M 470.48 89.68 C 471.55 89.46 472.63 89.25 473.72 89.06 C 474.61 91.96 475.47 94.88 476.08 97.86 C 478.03 106.51 478.34 115.41 477.49 124.22 C 476.86 117.42 473.96 110.96 474.34 104.05 C 474.57 100.27 474.26 96.47 472.77 92.95 C 471.96 93.56 471.15 94.18 470.35 94.81 C 470.35 93.10 470.42 91.39 470.48 89.68 Z" />
</g>
<g id="#d14d83ff">
<path fill="#d14d83" opacity="1.00" d=" M 513.43 89.24 C 515.08 90.65 516.84 92.07 517.87 94.03 C 518.92 97.00 519.17 100.18 519.78 103.26 C 520.14 99.47 520.45 95.67 520.43 91.86 C 520.89 98.20 520.70 104.57 521.25 110.91 C 521.27 115.07 520.98 119.22 520.86 123.38 C 519.52 120.93 517.96 118.62 516.43 116.30 C 514.61 117.98 512.80 119.67 510.99 121.37 C 510.30 119.56 509.42 117.81 509.01 115.91 C 509.22 112.22 510.75 108.69 510.54 104.96 C 510.55 102.09 509.60 99.28 509.75 96.41 C 511.07 94.07 512.75 91.90 513.43 89.24 Z" />
</g>
<g id="#076ed2ff">
<path fill="#076ed2" opacity="1.00" d=" M 462.38 94.97 C 464.79 92.82 467.34 90.67 470.48 89.68 C 470.42 91.39 470.35 93.10 470.35 94.81 C 470.34 102.22 471.79 109.59 471.20 117.00 C 470.93 121.66 471.99 126.24 472.35 130.86 C 472.12 132.27 471.84 133.67 471.56 135.08 C 468.94 135.77 466.45 136.91 464.41 138.73 L 463.82 139.19 C 464.57 124.45 463.24 109.69 462.38 94.97 Z" />
</g>
<g id="#fefdfdff">
<path fill="#fefdfd" opacity="1.00" d=" M 534.48 95.76 C 539.94 93.76 545.80 93.46 551.53 92.85 C 556.17 92.71 560.82 92.96 565.40 93.73 L 565.33 94.84 C 558.34 96.80 551.05 95.56 543.92 95.91 C 540.77 96.01 537.62 96.00 534.48 95.76 Z" />
</g>
<g id="#fc6a54ff">
<path fill="#fc6a54" opacity="1.00" d=" M 565.40 93.73 C 566.95 100.07 565.79 106.58 566.08 113.01 C 566.21 118.59 566.92 124.15 566.79 129.73 C 566.69 134.42 565.96 139.09 564.43 143.54 C 563.08 146.92 564.54 150.44 565.14 153.81 C 564.02 155.98 562.30 158.47 563.93 160.86 C 566.87 166.26 565.58 172.48 565.55 178.32 C 565.44 182.11 566.54 185.77 567.61 189.36 C 568.38 194.09 568.27 198.93 567.86 203.69 C 567.32 204.03 566.24 204.71 565.70 205.05 C 565.81 204.58 566.04 203.63 566.15 203.16 C 566.82 197.67 567.71 191.41 564.59 186.50 C 560.92 184.10 555.99 184.16 552.78 180.89 C 555.58 179.53 558.61 180.91 561.54 180.64 C 565.51 178.80 565.86 173.01 562.12 170.70 C 558.09 173.00 553.98 175.96 549.07 175.42 C 548.75 173.62 548.35 171.83 547.96 170.05 C 549.29 168.59 550.64 167.15 551.99 165.70 C 551.91 164.66 551.82 163.62 551.74 162.58 C 554.72 158.98 555.55 154.22 555.44 149.68 C 555.49 147.90 554.02 146.65 553.16 145.25 L 553.05 144.51 C 556.41 143.16 559.86 142.00 563.41 141.22 C 562.02 137.24 564.54 133.67 564.98 129.81 C 564.69 123.40 562.91 116.96 564.12 110.55 C 565.09 105.37 565.22 100.09 565.33 94.84 L 565.40 93.73 Z" />
</g>
<g id="#5cccadff">
<path fill="#5cccad" opacity="1.00" d=" M 598.29 94.28 C 600.16 94.54 602.06 94.58 603.90 95.09 C 605.52 96.00 606.19 97.90 607.13 99.41 C 605.68 99.66 604.24 99.97 602.81 100.27 C 602.72 101.72 602.63 103.17 602.55 104.61 C 601.31 105.50 600.07 106.39 598.84 107.27 C 599.26 102.93 598.78 98.59 598.29 94.28 Z" />
</g>
<g id="#fda48bff">
<path fill="#fda48b" opacity="1.00" d=" M 543.92 95.91 C 551.05 95.56 558.34 96.80 565.33 94.84 C 565.22 100.09 565.09 105.37 564.12 110.55 C 562.91 116.96 564.69 123.40 564.98 129.81 C 562.87 131.56 560.65 133.18 558.63 135.03 C 558.56 132.63 558.47 130.24 558.40 127.84 C 556.47 127.10 554.54 126.35 552.62 125.61 C 552.82 122.93 552.72 120.25 552.57 117.57 C 551.92 117.44 550.63 117.19 549.98 117.06 C 548.45 118.65 546.93 120.25 545.46 121.89 C 544.88 121.21 544.28 120.55 543.68 119.89 C 543.87 118.96 544.06 118.04 544.25 117.12 C 544.49 115.05 545.51 112.72 544.31 110.78 C 542.24 107.48 539.26 104.90 536.70 102.01 C 545.76 101.88 554.88 102.09 563.86 100.65 C 563.95 99.96 564.12 98.59 564.21 97.90 C 557.78 96.66 551.34 98.13 544.98 99.02 C 544.62 97.98 544.27 96.94 543.92 95.91 M 546.99 116.16 C 548.74 115.23 549.94 113.76 550.20 111.75 C 547.49 111.43 545.23 113.64 546.99 116.16 Z" />
</g>
<g id="#0773d6ff">
<path fill="#0773d6" opacity="1.00" d=" M 476.08 97.86 C 477.59 97.44 479.12 97.02 480.64 96.62 C 481.79 103.49 482.79 110.39 483.85 117.27 C 484.64 123.48 484.44 129.78 484.95 136.02 C 484.20 135.34 483.46 134.66 482.72 133.98 C 481.33 135.28 479.94 136.58 478.56 137.89 L 478.52 136.94 C 478.59 132.67 477.79 128.46 477.49 124.22 C 478.34 115.41 478.03 106.51 476.08 97.86 Z" />
</g>
<g id="#ce427bff">
<path fill="#ce427b" opacity="1.00" d=" M 502.06 95.71 C 503.40 98.66 505.06 101.69 504.95 105.02 C 504.55 108.23 502.53 110.93 501.87 114.07 C 501.51 117.93 503.32 121.55 505.03 124.90 C 504.48 125.65 503.94 126.40 503.41 127.16 C 500.88 125.23 498.57 123.02 496.71 120.44 C 498.21 118.64 499.70 116.83 501.18 115.01 C 499.33 112.76 497.18 110.66 495.95 107.98 C 495.19 104.90 496.05 101.73 496.46 98.67 C 498.21 98.61 499.96 98.56 501.72 98.51 C 501.80 97.81 501.97 96.41 502.06 95.71 Z" />
</g>
<g id="#3e663eff">
<path fill="#3e663e" opacity="1.00" d=" M 658.44 114.72 C 656.33 108.88 658.97 102.94 659.56 97.09 C 659.70 101.83 659.49 106.65 660.70 111.28 C 661.49 114.11 661.60 117.06 661.49 119.99 C 661.18 130.00 662.40 139.98 662.25 149.99 C 662.18 159.33 662.75 168.69 661.97 178.01 C 661.47 185.68 661.62 193.37 660.86 201.02 C 660.71 206.56 661.41 212.14 660.66 217.66 C 654.30 221.16 646.60 224.33 639.29 221.80 C 634.56 220.09 628.60 222.27 624.78 218.26 C 622.74 216.69 623.05 213.93 622.74 211.66 C 625.36 214.61 628.21 217.90 632.37 218.48 C 640.27 220.10 649.15 221.55 656.60 217.63 C 659.53 212.97 659.74 207.08 659.01 201.76 C 658.96 201.27 658.87 200.28 658.82 199.78 C 658.65 195.39 658.92 191.00 658.87 186.61 C 660.10 183.12 661.13 179.43 660.34 175.72 C 659.21 169.23 659.30 162.62 660.05 156.10 C 660.94 148.03 659.96 139.93 659.06 131.91 C 658.34 126.19 660.33 120.31 658.44 114.72 Z" />
</g>
<g id="#fff7eeff">
<path fill="#fff7ee" opacity="1.00" d=" M 640.61 99.49 C 641.66 98.93 642.78 98.54 643.98 98.33 C 645.61 102.01 645.92 106.35 643.88 109.94 C 642.85 111.70 640.47 110.84 639.48 109.51 C 639.06 106.15 639.85 102.75 640.61 99.49 Z" />
</g>
<g id="#dfffeaff">
<path fill="#dfffea" opacity="1.00" d=" M 382.83 103.29 C 384.07 102.94 385.32 102.58 386.57 102.23 C 388.59 106.19 391.07 109.94 394.48 112.84 C 396.52 114.80 398.38 117.09 399.09 119.89 C 400.26 124.41 402.44 128.54 404.63 132.62 C 405.56 134.42 406.47 136.24 407.51 137.98 C 409.20 140.72 411.16 143.29 412.72 146.11 C 414.84 150.29 416.57 154.75 419.69 158.32 C 423.22 162.81 428.12 165.93 431.89 170.18 C 433.78 173.36 433.90 177.24 435.35 180.62 C 434.23 181.38 433.08 182.09 431.95 182.80 C 429.13 180.98 426.46 178.93 424.11 176.54 C 418.15 170.71 413.38 163.72 409.92 156.14 C 407.91 151.72 405.69 147.38 402.99 143.34 C 401.43 140.83 400.02 138.24 398.49 135.72 C 397.69 134.40 396.89 133.09 396.12 131.75 C 393.45 127.89 393.56 123.05 392.12 118.76 C 389.01 113.63 382.52 110.02 382.83 103.29 Z" />
</g>
<g id="#67fdddff">
<path fill="#67fddd" opacity="1.00" d=" M 399.24 101.85 C 402.79 108.91 406.93 115.69 410.83 122.51 C 410.89 124.98 411.00 127.45 411.26 129.91 C 409.05 130.82 406.84 131.73 404.63 132.62 C 402.44 128.54 400.26 124.41 399.09 119.89 C 398.38 117.09 396.52 114.80 394.48 112.84 C 397.20 112.63 399.93 112.55 402.67 112.56 C 400.79 109.27 399.59 105.64 399.24 101.85 Z" />
</g>
<g id="#fd8d77ff">
<path fill="#fd8d77" opacity="1.00" d=" M 532.22 101.90 C 533.71 101.94 535.20 101.98 536.70 102.01 C 539.26 104.90 542.24 107.48 544.31 110.78 C 545.51 112.72 544.49 115.05 544.25 117.12 C 541.78 115.22 540.07 112.60 538.84 109.77 C 536.67 110.73 534.43 111.53 532.15 112.18 C 531.23 108.80 531.00 105.23 532.22 101.90 Z" />
</g>
<g id="#ff8e4cff">
<path fill="#ff8e4c" opacity="1.00" d=" M 346.50 107.35 C 351.15 105.34 355.90 103.15 361.01 102.73 C 363.62 102.24 364.96 104.95 365.97 106.87 C 366.61 109.61 367.13 112.39 367.70 115.16 C 362.63 116.41 357.64 113.32 352.59 114.96 C 354.02 116.44 355.55 117.85 357.31 118.94 C 355.84 119.09 354.37 119.20 352.90 119.32 C 351.37 117.39 349.84 115.46 348.32 113.52 C 348.10 113.63 347.66 113.85 347.44 113.96 C 347.23 114.45 346.81 115.43 346.60 115.92 C 346.38 116.19 345.94 116.73 345.71 117.00 C 344.20 117.07 342.69 117.05 341.18 117.09 C 340.17 117.12 339.17 117.15 338.18 117.20 C 337.95 115.70 337.72 114.20 337.54 112.70 C 339.40 109.50 343.33 108.71 346.50 107.35 Z" />
</g>
<g id="#57caabff">
<path fill="#57caab" opacity="1.00" d=" M 582.50 109.91 C 585.98 107.72 589.42 105.44 593.10 103.59 C 592.80 106.94 592.13 110.24 591.46 113.53 C 588.05 114.50 585.90 117.54 583.16 119.57 C 582.14 116.45 582.21 113.14 582.50 109.91 Z" />
</g>
<g id="#078f69ff">
<path fill="#078f69" opacity="1.00" d=" M 611.11 136.85 C 614.29 126.09 611.47 114.64 613.85 103.75 C 614.28 112.84 613.64 121.95 614.16 131.04 C 614.18 132.87 614.48 134.80 613.77 136.55 C 612.59 139.45 611.45 142.48 611.74 145.67 C 612.55 155.77 611.36 165.88 611.50 175.99 C 610.75 174.55 609.97 173.14 609.20 171.72 C 605.51 171.08 601.80 170.51 598.08 170.11 C 598.30 168.63 598.07 166.39 600.03 166.05 C 602.54 165.56 605.09 166.13 607.59 166.41 C 606.86 165.22 606.15 164.03 605.44 162.84 C 606.41 159.70 607.41 156.57 608.48 153.45 C 610.38 148.10 609.35 142.25 611.11 136.85 Z" />
</g>
<g id="#ff6d31ff">
<path fill="#ff6d31" opacity="1.00" d=" M 365.97 106.87 C 368.82 111.39 370.48 116.54 371.98 121.64 C 370.93 121.31 369.88 121.03 368.83 120.76 C 368.22 119.55 367.62 118.34 367.02 117.12 C 366.35 118.10 365.68 119.07 365.01 120.05 L 364.29 120.54 C 363.03 119.29 361.80 118.03 360.56 116.77 C 359.72 117.48 358.87 118.19 358.00 118.87 L 357.31 118.94 C 355.55 117.85 354.02 116.44 352.59 114.96 C 357.64 113.32 362.63 116.41 367.70 115.16 C 367.13 112.39 366.61 109.61 365.97 106.87 Z" />
</g>
<g id="#3d6636ff">
<path fill="#3d6636" opacity="1.00" d=" M 622.74 107.78 C 625.55 113.43 625.32 119.87 625.90 126.00 C 626.30 132.56 627.81 139.07 627.38 145.67 C 626.77 154.85 626.83 164.06 627.06 173.25 C 625.74 182.22 625.36 191.25 625.55 200.30 C 624.74 200.33 623.94 200.37 623.14 200.40 C 624.15 190.96 624.33 181.48 625.01 172.03 C 624.47 158.38 625.09 144.72 624.42 131.07 C 623.79 123.32 621.93 115.60 622.74 107.78 Z" />
</g>
<g id="#2ac8bce3">
<path fill="#2ac8bc" opacity="0.89" d=" M 372.95 108.76 C 375.17 111.09 376.48 114.02 376.78 117.23 C 375.11 114.61 373.67 111.80 372.95 108.76 Z" />
</g>
<g id="#d2558bff">
<path fill="#d2558b" opacity="1.00" d=" M 521.25 110.91 C 521.72 120.94 522.55 130.95 522.90 140.98 C 523.51 148.65 523.11 156.38 523.90 164.04 C 523.97 166.91 523.74 169.78 523.60 172.65 C 523.17 176.53 523.09 180.45 523.41 184.35 C 522.80 189.79 522.64 195.27 522.45 200.75 C 522.34 205.58 520.71 210.22 520.50 215.04 C 520.39 217.40 520.00 220.53 517.39 221.39 C 511.19 222.87 504.93 221.24 498.81 220.19 C 495.54 219.38 490.47 219.53 489.21 215.77 C 489.56 206.48 491.70 197.32 491.94 188.01 C 492.36 181.35 491.11 174.75 491.03 168.11 C 491.39 162.13 491.26 156.14 491.44 150.16 C 493.37 149.06 495.26 147.86 497.09 146.57 C 499.11 147.39 502.50 148.74 500.58 151.44 C 498.10 153.14 494.95 153.86 493.02 156.32 C 494.17 157.36 495.33 158.41 496.50 159.45 C 494.45 163.35 491.97 167.45 492.65 172.05 C 493.48 179.15 493.36 186.30 493.35 193.43 C 494.69 193.45 496.04 193.46 497.40 193.50 C 504.40 193.82 511.45 193.82 518.41 192.87 C 516.08 189.81 512.19 189.00 508.83 187.57 C 511.99 186.80 517.29 188.77 518.57 184.87 C 515.01 184.25 511.41 184.17 507.82 184.03 C 506.62 182.10 504.66 180.01 505.57 177.56 C 507.26 172.71 510.77 168.78 513.95 164.84 C 515.24 163.80 516.60 162.82 517.67 161.53 C 518.08 159.66 516.71 158.04 516.10 156.37 C 514.65 153.92 514.89 151.04 515.20 148.33 C 513.39 148.46 511.57 148.60 509.76 148.67 L 508.88 148.66 C 506.66 148.65 504.44 148.65 502.22 148.60 C 502.79 146.58 503.51 144.60 504.19 142.61 C 505.53 144.01 506.88 145.41 508.25 146.80 C 509.33 146.38 510.41 145.92 511.45 145.36 C 510.51 143.25 509.57 141.15 508.69 139.02 C 509.14 138.70 510.03 138.07 510.48 137.75 C 513.05 139.27 517.24 143.83 519.70 139.87 C 521.15 134.53 520.50 128.86 520.86 123.38 C 520.98 119.22 521.27 115.07 521.25 110.91 M 492.26 200.41 C 491.62 203.28 491.13 207.27 494.49 208.60 C 493.44 209.10 492.40 209.61 491.37 210.13 C 493.11 212.80 494.57 215.84 497.23 217.74 C 499.33 218.87 502.38 219.52 504.27 217.66 C 505.03 215.86 505.97 214.15 506.98 212.47 C 506.30 212.39 504.94 212.21 504.26 212.13 C 504.55 210.35 504.87 208.58 505.19 206.81 C 507.72 206.25 510.23 205.35 512.85 205.39 C 514.42 206.01 515.83 206.98 517.30 207.83 C 517.84 205.17 518.14 201.11 514.91 200.11 C 511.94 199.02 509.20 197.00 506.06 196.56 C 501.40 197.44 496.50 198.27 492.26 200.41 Z" />
</g>
<g id="#fee9e3ff">
<path fill="#fee9e3" opacity="1.00" d=" M 546.99 116.16 C 545.23 113.64 547.49 111.43 550.20 111.75 C 549.94 113.76 548.74 115.23 546.99 116.16 Z" />
</g>
<g id="#ff7235ff">
<path fill="#ff7235" opacity="1.00" d=" M 338.51 125.97 C 337.37 121.78 334.19 116.59 337.54 112.70 C 337.72 114.20 337.95 115.70 338.18 117.20 C 339.17 117.15 340.17 117.12 341.18 117.09 C 341.96 118.22 342.69 119.38 343.39 120.58 C 341.74 122.36 340.11 124.16 338.51 125.97 Z" />
</g>
<g id="#ffbc6fff">
<path fill="#ffbc6f" opacity="1.00" d=" M 347.44 113.96 C 347.66 113.85 348.10 113.63 348.32 113.52 C 349.84 115.46 351.37 117.39 352.90 119.32 C 354.37 119.20 355.84 119.09 357.31 118.94 L 358.00 118.87 C 358.64 120.29 359.28 121.71 359.93 123.14 C 361.38 122.28 362.85 121.44 364.29 120.54 L 365.01 120.05 C 364.64 122.84 364.37 125.64 364.22 128.45 C 362.21 126.32 359.80 122.32 356.39 124.37 C 355.40 126.27 356.15 128.39 356.73 130.29 C 358.11 134.23 359.94 138.00 361.25 141.97 C 359.39 140.85 357.18 140.02 355.87 138.21 C 355.32 135.86 355.60 133.41 355.62 131.02 C 353.72 131.95 351.82 132.87 349.94 133.82 C 348.75 132.79 347.44 131.85 346.56 130.53 C 346.50 129.04 346.71 127.57 346.87 126.11 C 345.66 125.88 344.44 125.65 343.24 125.42 C 344.18 122.19 345.34 119.03 346.60 115.92 C 346.81 115.43 347.23 114.45 347.44 113.96 Z" />
</g>
<g id="#1eb996ff">
<path fill="#1eb996" opacity="1.00" d=" M 583.16 119.57 C 585.90 117.54 588.05 114.50 591.46 113.53 C 590.99 118.17 591.71 122.80 591.84 127.43 C 587.60 126.68 584.76 123.35 583.16 119.57 Z" />
</g>
<g id="#5dccadff">
<path fill="#5dccad" opacity="1.00" d=" M 597.27 131.90 C 597.41 125.40 596.67 118.83 598.02 112.42 C 598.26 114.90 598.43 117.39 598.42 119.88 C 599.55 121.09 600.70 122.28 601.87 123.47 C 599.49 125.76 597.95 128.68 597.27 131.90 Z" />
</g>
<g id="#fff9efff">
<path fill="#fff9ef" opacity="1.00" d=" M 639.76 123.02 C 640.05 119.82 640.65 115.61 644.19 114.42 C 644.28 118.64 643.06 122.83 644.03 127.03 C 644.80 130.46 641.41 133.80 637.98 133.13 C 638.53 129.75 639.61 126.46 639.76 123.02 Z" />
</g>
<g id="#ff9c57ff">
<path fill="#ff9c57" opacity="1.00" d=" M 341.18 117.09 C 342.69 117.05 344.20 117.07 345.71 117.00 C 345.94 116.73 346.38 116.19 346.60 115.92 C 345.34 119.03 344.18 122.19 343.24 125.42 C 344.44 125.65 345.66 125.88 346.87 126.11 C 346.71 127.57 346.50 129.04 346.56 130.53 C 347.44 131.85 348.75 132.79 349.94 133.82 C 351.82 132.87 353.72 131.95 355.62 131.02 C 355.60 133.41 355.32 135.86 355.87 138.21 C 357.18 140.02 359.39 140.85 361.25 141.97 C 361.93 143.90 362.59 145.84 363.24 147.79 C 361.95 150.29 360.63 152.78 359.25 155.23 C 357.28 151.67 355.40 148.05 354.02 144.22 C 352.87 145.87 351.70 147.50 350.53 149.12 C 348.33 147.27 348.94 144.62 349.65 142.21 C 348.81 143.00 347.97 143.78 347.13 144.56 C 345.35 139.36 343.28 134.24 340.22 129.64 C 339.56 128.46 339.05 127.20 338.51 125.97 C 340.11 124.16 341.74 122.36 343.39 120.58 C 342.69 119.38 341.96 118.22 341.18 117.09 Z" />
</g>
<g id="#ff9350ff">
<path fill="#ff9350" opacity="1.00" d=" M 358.00 118.87 C 358.87 118.19 359.72 117.48 360.56 116.77 C 361.80 118.03 363.03 119.29 364.29 120.54 C 362.85 121.44 361.38 122.28 359.93 123.14 C 359.28 121.71 358.64 120.29 358.00 118.87 Z" />
<path fill="#ff9350" opacity="1.00" d=" M 386.14 209.29 C 388.38 209.27 390.63 209.25 392.88 209.28 C 391.45 212.03 389.61 215.21 386.06 215.14 C 385.60 213.20 385.37 211.19 386.14 209.29 Z" />
</g>
<g id="#d46a9cff">
<path fill="#d46a9c" opacity="1.00" d=" M 510.99 121.37 C 512.80 119.67 514.61 117.98 516.43 116.30 C 517.96 118.62 519.52 120.93 520.86 123.38 C 520.50 128.86 521.15 134.53 519.70 139.87 C 517.24 143.83 513.05 139.27 510.48 137.75 C 512.80 137.29 515.15 137.05 517.50 136.68 C 514.90 134.02 510.84 133.31 507.31 133.97 C 504.45 135.82 505.03 139.72 504.19 142.61 C 503.51 144.60 502.79 146.58 502.22 148.60 C 504.44 148.65 506.66 148.65 508.88 148.66 C 507.70 150.37 506.63 152.16 505.69 154.02 C 508.16 154.89 511.02 154.83 512.91 152.75 C 513.06 151.54 513.17 150.33 513.22 149.11 C 512.36 149.00 510.63 148.78 509.76 148.67 C 511.57 148.60 513.39 148.46 515.20 148.33 C 514.89 151.04 514.65 153.92 516.10 156.37 C 513.50 157.90 511.14 160.25 507.97 160.43 C 504.56 160.92 499.96 160.69 498.35 164.48 C 496.78 166.94 497.74 169.75 498.98 172.10 C 501.22 170.30 503.22 168.16 505.74 166.73 C 508.31 165.55 511.20 165.40 513.95 164.84 C 510.77 168.78 507.26 172.71 505.57 177.56 C 504.66 180.01 506.62 182.10 507.82 184.03 C 504.34 183.86 500.84 183.55 497.37 184.00 C 497.45 187.17 497.49 190.33 497.40 193.50 C 496.04 193.46 494.69 193.45 493.35 193.43 C 493.36 186.30 493.48 179.15 492.65 172.05 C 491.97 167.45 494.45 163.35 496.50 159.45 C 495.33 158.41 494.17 157.36 493.02 156.32 C 494.95 153.86 498.10 153.14 500.58 151.44 C 502.50 148.74 499.11 147.39 497.09 146.57 C 497.60 143.41 499.13 140.59 500.85 137.93 C 500.50 136.44 500.03 134.96 500.00 133.42 C 500.59 131.09 502.13 129.15 503.41 127.16 C 503.94 126.40 504.48 125.65 505.03 124.90 C 506.72 127.28 508.80 129.35 511.01 131.27 C 512.47 128.09 512.45 124.54 510.99 121.37 Z" />
</g>
<g id="#ffa861ff">
<path fill="#ffa861" opacity="1.00" d=" M 365.01 120.05 C 365.68 119.07 366.35 118.10 367.02 117.12 C 367.62 118.34 368.22 119.55 368.83 120.76 C 369.88 121.03 370.93 121.31 371.98 121.64 L 372.54 121.81 C 370.36 124.21 368.17 126.60 366.06 129.05 C 366.25 129.50 366.64 130.40 366.83 130.85 C 368.36 130.21 369.79 128.80 371.53 128.94 C 372.52 130.92 372.77 133.18 373.80 135.15 C 374.99 137.28 377.02 138.72 378.76 140.37 C 380.41 144.89 381.80 149.50 383.33 154.07 C 383.11 154.56 382.68 155.55 382.46 156.04 C 380.33 156.67 378.22 157.45 376.35 158.66 C 372.22 148.63 367.74 138.72 364.22 128.45 C 364.37 125.64 364.64 122.84 365.01 120.05 Z" />
</g>
<g id="#4df3dcff">
<path fill="#4df3dc" opacity="1.00" d=" M 378.59 120.97 C 382.13 124.31 384.09 129.01 387.79 132.15 C 390.50 132.91 393.37 131.99 396.12 131.75 C 396.89 133.09 397.69 134.40 398.49 135.72 C 396.59 137.64 394.66 139.52 392.70 141.39 C 391.31 140.75 389.91 140.12 388.52 139.49 C 385.64 133.08 381.17 127.52 378.59 120.97 Z" />
</g>
<g id="#ff641fff">
<path fill="#ff641f" opacity="1.00" d=" M 366.06 129.05 C 368.17 126.60 370.36 124.21 372.54 121.81 C 374.45 128.05 376.85 134.13 378.76 140.37 C 377.02 138.72 374.99 137.28 373.80 135.15 C 372.77 133.18 372.52 130.92 371.53 128.94 C 369.79 128.80 368.36 130.21 366.83 130.85 C 366.64 130.40 366.25 129.50 366.06 129.05 Z" />
</g>
<g id="#1ed8d9ff">
<path fill="#1ed8d9" opacity="1.00" d=" M 410.83 122.51 C 412.30 123.89 413.48 125.55 414.58 127.24 C 413.22 131.41 410.32 134.73 407.51 137.98 C 406.47 136.24 405.56 134.42 404.63 132.62 C 406.84 131.73 409.05 130.82 411.26 129.91 C 411.00 127.45 410.89 124.98 410.83 122.51 Z" />
</g>
<g id="#fd917bff">
<path fill="#fd917b" opacity="1.00" d=" M 553.05 144.51 C 551.77 138.28 551.91 131.90 552.62 125.61 C 554.54 126.35 556.47 127.10 558.40 127.84 C 558.47 130.24 558.56 132.63 558.63 135.03 C 560.65 133.18 562.87 131.56 564.98 129.81 C 564.54 133.67 562.02 137.24 563.41 141.22 C 559.86 142.00 556.41 143.16 553.05 144.51 Z" />
</g>
<g id="#25b895ff">
<path fill="#25b895" opacity="1.00" d=" M 580.15 125.80 C 581.37 127.84 583.00 129.80 583.43 132.20 C 583.34 134.49 582.44 136.65 581.83 138.84 C 583.60 138.22 585.38 137.62 587.16 137.02 C 586.84 139.64 586.37 142.25 586.22 144.89 C 586.06 147.18 587.14 149.31 587.27 151.57 C 586.18 154.02 583.98 155.92 583.40 158.60 C 582.79 161.24 583.34 163.94 583.93 166.52 C 585.65 163.31 586.55 159.69 588.56 156.65 C 589.74 156.25 590.95 155.91 592.18 155.63 C 592.44 159.32 591.44 162.90 590.90 166.51 C 588.64 167.37 586.43 168.35 584.25 169.39 C 586.35 170.22 588.47 171.06 590.57 171.93 C 588.34 174.26 585.62 175.99 583.12 177.99 C 581.58 179.78 581.32 182.31 580.48 184.45 C 577.97 183.46 575.60 181.20 576.26 178.25 C 577.53 167.37 582.14 156.50 579.69 145.44 C 578.59 140.98 581.00 136.70 580.60 132.24 C 580.48 130.09 580.25 127.95 580.15 125.80 Z" />
</g>
<g id="#02becdff">
<path fill="#02becd" opacity="1.00" d=" M 414.58 127.24 C 415.61 129.04 417.01 130.63 417.82 132.54 C 417.91 135.20 418.27 137.88 417.99 140.54 C 416.84 142.87 414.54 144.35 412.72 146.11 C 411.16 143.29 409.20 140.72 407.51 137.98 C 410.32 134.73 413.22 131.41 414.58 127.24 Z" />
</g>
<g id="#ff571cff">
<path fill="#ff571c" opacity="1.00" d=" M 340.22 129.64 C 343.28 134.24 345.35 139.36 347.13 144.56 C 347.97 143.78 348.81 143.00 349.65 142.21 C 348.94 144.62 348.33 147.27 350.53 149.12 C 351.26 152.21 351.26 155.86 353.66 158.22 C 356.76 159.13 360.00 159.35 363.18 159.86 C 361.58 161.59 359.97 163.32 358.36 165.05 C 362.30 169.13 366.49 173.37 367.88 179.08 C 368.50 182.18 370.53 184.54 373.31 185.96 C 371.27 192.21 373.25 198.65 374.46 204.83 C 375.65 208.09 376.49 211.53 375.83 215.02 C 375.51 215.97 375.19 216.93 374.88 217.90 C 375.76 218.55 376.64 219.21 377.52 219.88 L 378.20 220.39 C 376.40 220.36 374.16 220.78 372.90 219.12 C 369.56 215.00 368.77 209.56 367.55 204.56 C 366.12 198.05 363.60 191.88 361.44 185.60 C 355.08 170.02 349.35 154.20 343.31 138.50 C 342.20 135.58 340.96 132.69 340.22 129.64 Z" />
</g>
<g id="#fa4135ff">
<path fill="#fa4135" opacity="1.00" d=" M 564.43 143.54 C 565.96 139.09 566.69 134.42 566.79 129.73 C 567.59 149.60 566.98 169.49 567.61 189.36 C 566.54 185.77 565.44 182.11 565.55 178.32 C 565.58 172.48 566.87 166.26 563.93 160.86 C 562.30 158.47 564.02 155.98 565.14 153.81 C 564.54 150.44 563.08 146.92 564.43 143.54 Z" />
</g>
<g id="#278fe7ff">
<path fill="#278fe7" opacity="1.00" d=" M 472.35 130.86 C 473.06 136.58 474.21 142.26 474.34 148.04 C 474.71 153.98 473.53 159.85 472.68 165.71 C 470.09 159.28 473.48 152.49 472.37 145.84 C 470.66 145.32 468.96 144.79 467.26 144.27 C 466.36 145.20 465.47 146.14 464.58 147.09 C 464.49 144.30 464.39 141.51 464.41 138.73 C 466.45 136.91 468.94 135.77 471.56 135.08 C 471.84 133.67 472.12 132.27 472.35 130.86 Z" />
</g>
<g id="#00a8bdff">
<path fill="#00a8bd" opacity="1.00" d=" M 417.82 132.54 C 419.87 134.54 420.99 137.19 422.38 139.64 C 429.00 149.84 435.42 160.16 442.72 169.91 C 441.45 174.15 439.35 178.36 435.35 180.62 C 433.90 177.24 433.78 173.36 431.89 170.18 C 428.12 165.93 423.22 162.81 419.69 158.32 C 416.57 154.75 414.84 150.29 412.72 146.11 C 414.54 144.35 416.84 142.87 417.99 140.54 C 418.27 137.88 417.91 135.20 417.82 132.54 Z" />
</g>
<g id="#218ae6ff">
<path fill="#218ae6" opacity="1.00" d=" M 478.56 137.89 C 479.94 136.58 481.33 135.28 482.72 133.98 C 483.46 134.66 484.20 135.34 484.95 136.02 C 485.15 139.01 485.27 142.02 485.27 145.02 C 483.24 144.60 481.21 144.19 479.19 143.77 C 478.95 141.81 478.71 139.85 478.56 137.89 Z" />
</g>
<g id="#fbfcfbff">
<path fill="#fbfcfb" opacity="1.00" d=" M 507.31 133.97 C 510.84 133.31 514.90 134.02 517.50 136.68 C 515.15 137.05 512.80 137.29 510.48 137.75 C 510.03 138.07 509.14 138.70 508.69 139.02 C 509.57 141.15 510.51 143.25 511.45 145.36 C 510.41 145.92 509.33 146.38 508.25 146.80 C 506.88 145.41 505.53 144.01 504.19 142.61 C 505.03 139.72 504.45 135.82 507.31 133.97 Z" />
</g>
<g id="#05c4d2ff">
<path fill="#05c4d2" opacity="1.00" d=" M 398.49 135.72 C 400.02 138.24 401.43 140.83 402.99 143.34 C 401.11 145.75 400.06 148.64 399.50 151.62 C 397.56 150.52 395.60 149.44 393.72 148.24 C 391.55 145.61 390.01 142.53 388.52 139.49 C 389.91 140.12 391.31 140.75 392.70 141.39 C 394.66 139.52 396.59 137.64 398.49 135.72 Z" />
</g>
<g id="#fc6b5eff">
<path fill="#fc6b5e" opacity="1.00" d=" M 534.71 141.81 C 538.30 138.90 542.77 137.43 546.97 135.67 L 546.89 136.67 C 546.41 138.20 545.87 139.71 545.35 141.23 C 543.45 141.54 541.55 141.86 539.66 142.16 C 540.66 144.23 542.95 146.73 541.05 148.97 C 539.17 150.49 536.53 150.47 534.27 151.02 C 534.29 152.77 533.11 154.96 534.34 156.41 C 536.84 157.51 539.59 157.86 542.25 158.44 C 542.17 163.29 543.11 168.50 540.30 172.82 C 541.60 172.81 542.90 172.81 544.21 172.81 C 544.71 175.70 544.86 178.62 545.01 181.55 C 539.22 187.45 537.25 196.07 536.74 204.07 C 536.25 204.41 535.27 205.08 534.78 205.42 C 533.30 193.09 531.87 180.66 532.54 168.23 C 532.65 164.92 531.69 161.73 530.79 158.59 C 530.84 158.29 530.93 157.68 530.98 157.38 C 533.80 152.60 532.86 146.83 534.71 141.81 Z" />
</g>
<g id="#64b3f1ff">
<path fill="#64b3f1" opacity="1.00" d=" M 478.90 148.89 C 478.52 144.92 478.23 140.93 478.52 136.94 L 478.56 137.89 C 478.71 139.85 478.95 141.81 479.19 143.77 C 481.21 144.19 483.24 144.60 485.27 145.02 C 485.03 148.79 484.70 152.55 484.75 156.33 C 484.33 154.06 483.80 151.81 483.31 149.56 C 481.84 149.34 480.37 149.11 478.90 148.89 Z" />
</g>
<g id="#fd8b77ff">
<path fill="#fd8b77" opacity="1.00" d=" M 545.35 141.23 C 545.87 139.71 546.41 138.20 546.89 136.67 C 547.13 142.56 548.84 148.42 548.05 154.34 C 547.40 158.31 547.11 162.49 544.92 165.98 C 543.45 168.01 543.76 170.50 544.21 172.81 C 542.90 172.81 541.60 172.81 540.30 172.82 C 543.11 168.50 542.17 163.29 542.25 158.44 C 539.59 157.86 536.84 157.51 534.34 156.41 C 533.11 154.96 534.29 152.77 534.27 151.02 C 536.53 150.47 539.17 150.49 541.05 148.97 C 542.95 146.73 540.66 144.23 539.66 142.16 C 541.55 141.86 543.45 141.54 545.35 141.23 Z" />
</g>
<g id="#08a07aff">
<path fill="#08a07a" opacity="1.00" d=" M 596.42 145.53 C 601.04 142.21 605.72 138.83 611.11 136.85 C 609.35 142.25 610.38 148.10 608.48 153.45 C 607.41 156.57 606.41 159.70 605.44 162.84 C 606.15 164.03 606.86 165.22 607.59 166.41 C 605.09 166.13 602.54 165.56 600.03 166.05 C 598.07 166.39 598.30 168.63 598.08 170.11 C 601.80 170.51 605.51 171.08 609.20 171.72 C 609.97 173.14 610.75 174.55 611.50 175.99 C 612.32 178.81 612.22 181.75 611.50 184.58 C 607.81 186.72 603.51 186.53 599.49 185.65 C 601.23 188.32 602.46 191.28 603.10 194.40 C 601.37 194.54 599.65 194.70 597.94 194.85 C 597.64 195.45 597.05 196.65 596.75 197.25 C 593.33 197.17 589.90 197.20 586.48 197.32 C 588.48 194.37 591.06 191.84 592.86 188.75 C 594.22 186.42 592.53 183.94 591.67 181.77 C 592.47 180.99 593.28 180.23 594.09 179.44 C 597.41 177.15 596.88 173.03 596.24 169.58 C 595.28 165.28 597.83 161.29 597.71 157.03 C 597.64 153.16 596.69 149.38 596.42 145.53 Z" />
</g>
<g id="#06633eff">
<path fill="#06633e" opacity="1.00" d=" M 611.74 145.67 C 611.45 142.48 612.59 139.45 613.77 136.55 C 614.61 155.19 613.89 173.86 614.65 192.51 C 611.66 191.15 611.69 187.39 611.50 184.58 C 612.22 181.75 612.32 178.81 611.50 175.99 C 611.36 165.88 612.55 155.77 611.74 145.67 Z" />
</g>
<g id="#ff6b30ff">
<path fill="#ff6b30" opacity="1.00" d=" M 350.53 149.12 C 351.70 147.50 352.87 145.87 354.02 144.22 C 355.40 148.05 357.28 151.67 359.25 155.23 C 360.63 152.78 361.95 150.29 363.24 147.79 C 365.93 156.29 369.26 164.57 371.92 173.09 C 374.81 182.58 378.64 191.74 382.44 200.88 C 385.04 202.52 387.24 198.97 389.44 197.90 C 393.13 201.62 396.80 206.17 402.55 206.15 C 402.44 207.47 402.33 208.80 402.22 210.13 C 393.90 213.16 386.23 217.83 377.52 219.88 C 379.40 218.38 381.30 216.91 383.20 215.44 C 383.82 210.34 382.66 205.22 379.44 201.16 C 378.40 202.02 377.36 202.90 376.32 203.77 C 377.08 206.14 377.82 208.51 378.55 210.89 C 377.61 212.25 376.68 213.60 375.83 215.02 C 376.49 211.53 375.65 208.09 374.46 204.83 C 373.25 198.65 371.27 192.21 373.31 185.96 C 370.53 184.54 368.50 182.18 367.88 179.08 C 366.49 173.37 362.30 169.13 358.36 165.05 C 359.97 163.32 361.58 161.59 363.18 159.86 C 360.00 159.35 356.76 159.13 353.66 158.22 C 351.26 155.86 351.26 152.21 350.53 149.12 M 386.14 209.29 C 385.37 211.19 385.60 213.20 386.06 215.14 C 389.61 215.21 391.45 212.03 392.88 209.28 C 390.63 209.25 388.38 209.27 386.14 209.29 Z" />
</g>
<g id="#00aec2ff">
<path fill="#00aec2" opacity="1.00" d=" M 399.50 151.62 C 400.06 148.64 401.11 145.75 402.99 143.34 C 405.69 147.38 407.91 151.72 409.92 156.14 C 413.38 163.72 418.15 170.71 424.11 176.54 C 423.52 179.10 421.87 181.08 419.22 181.57 C 417.69 179.08 415.49 177.15 412.84 175.93 C 409.77 173.06 407.95 169.01 405.33 165.71 C 401.59 159.80 397.41 154.17 393.72 148.24 C 395.60 149.44 397.56 150.52 399.50 151.62 Z" />
</g>
<g id="#86c5f1ff">
<path fill="#86c5f1" opacity="1.00" d=" M 464.58 147.09 C 465.47 146.14 466.36 145.20 467.26 144.27 C 468.96 144.79 470.66 145.32 472.37 145.84 C 473.48 152.49 470.09 159.28 472.68 165.71 C 472.67 166.21 472.67 167.22 472.66 167.73 C 470.57 166.82 468.58 165.69 466.65 164.48 C 466.17 165.38 465.69 166.27 465.25 167.18 C 465.35 160.48 465.09 153.77 464.58 147.09 Z" />
</g>
<g id="#f5cb7eff">
<path fill="#f5cb7e" opacity="1.00" d=" M 252.17 145.53 C 255.83 144.65 259.71 144.87 263.39 145.52 C 265.40 146.71 267.30 148.95 269.89 148.27 C 278.20 147.07 288.11 144.61 295.13 150.75 C 293.45 152.07 291.76 153.37 290.07 154.66 C 287.34 151.67 283.47 150.41 279.70 149.31 C 278.31 150.95 276.94 152.61 275.59 154.29 C 277.82 156.14 280.69 156.39 283.47 156.49 C 287.23 156.50 289.29 160.22 291.90 162.37 C 289.58 162.03 287.24 161.82 284.95 161.38 C 282.83 160.19 280.73 158.97 278.52 157.97 C 277.35 159.39 276.18 160.81 275.01 162.22 C 273.59 162.55 272.17 162.88 270.75 163.21 C 271.79 164.65 272.86 166.06 273.89 167.51 C 275.67 170.00 275.92 173.10 276.13 176.05 C 272.41 178.28 268.92 181.85 264.26 181.58 C 255.84 181.23 247.07 183.21 239.11 179.48 C 239.44 177.99 239.77 176.50 240.01 174.99 C 240.66 175.57 241.32 176.15 241.98 176.73 C 243.08 174.73 244.47 172.81 245.08 170.58 C 245.04 167.94 243.89 165.45 243.84 162.81 C 243.95 160.21 244.83 157.70 244.91 155.10 C 244.45 152.76 243.18 150.70 242.17 148.58 C 245.49 147.54 248.80 146.45 252.17 145.53 M 251.11 160.08 C 251.15 162.24 251.27 164.40 251.49 166.56 C 252.89 166.55 254.77 167.66 255.65 166.03 C 255.44 164.06 254.94 162.14 254.54 160.22 C 253.39 160.17 252.25 160.12 251.11 160.08 M 261.60 163.06 C 262.11 164.85 263.18 166.60 265.19 166.87 C 266.86 167.48 270.31 166.69 268.87 164.37 C 266.50 163.68 264.05 163.36 261.60 163.06 Z" />
</g>
<g id="#f2cb5bff">
<path fill="#f2cb5b" opacity="1.00" d=" M 228.64 149.56 C 230.74 147.84 233.27 146.39 236.07 146.53 C 241.47 146.65 246.78 145.59 252.17 145.53 C 248.80 146.45 245.49 147.54 242.17 148.58 C 243.18 150.70 244.45 152.76 244.91 155.10 C 244.83 157.70 243.95 160.21 243.84 162.81 C 243.89 165.45 245.04 167.94 245.08 170.58 C 244.47 172.81 243.08 174.73 241.98 176.73 C 241.32 176.15 240.66 175.57 240.01 174.99 C 238.84 167.42 238.79 159.74 237.78 152.15 C 236.58 152.17 235.39 152.20 234.20 152.23 C 233.05 159.68 233.03 167.37 234.22 174.81 C 234.42 177.50 236.83 178.74 239.11 179.48 C 247.07 183.21 255.84 181.23 264.26 181.58 C 268.92 181.85 272.41 178.28 276.13 176.05 C 278.65 177.24 281.17 178.52 283.90 179.21 C 286.54 179.82 289.06 177.85 291.71 178.45 C 294.96 179.14 298.28 180.54 301.65 179.63 C 304.47 179.35 306.02 176.27 306.04 173.71 C 305.05 171.16 303.34 168.97 301.86 166.70 C 307.53 167.96 313.86 166.56 318.81 170.24 C 318.05 168.33 317.31 166.42 316.59 164.50 C 314.41 164.00 312.13 163.78 310.10 162.83 C 308.60 161.73 307.65 160.08 306.51 158.65 C 309.77 158.49 312.96 159.31 316.18 159.66 C 318.94 159.98 321.57 158.89 324.17 158.13 C 324.78 164.54 324.89 170.97 325.44 177.38 C 326.36 178.02 327.29 178.66 328.23 179.30 C 329.77 170.07 328.28 160.67 326.59 151.57 C 326.03 149.60 324.57 148.13 322.92 147.02 C 327.20 147.19 331.88 145.89 335.85 148.01 C 340.06 150.86 342.96 155.26 343.74 160.30 C 344.04 161.74 344.07 163.24 343.80 164.69 C 342.88 168.57 342.04 172.49 340.86 176.30 C 340.35 178.16 338.67 179.26 337.25 180.38 C 338.55 173.04 338.72 165.48 337.93 158.07 C 337.68 154.89 336.46 151.91 335.01 149.10 C 334.37 149.21 333.09 149.45 332.45 149.56 C 329.61 156.70 329.71 164.50 329.79 172.05 C 329.90 174.46 329.87 176.97 330.81 179.24 C 331.45 181.38 334.07 180.92 335.80 181.34 C 335.46 181.51 334.77 181.86 334.43 182.04 C 331.57 183.29 328.38 183.49 325.31 183.19 C 322.09 181.29 318.84 179.43 315.36 178.05 C 312.82 179.87 310.26 182.37 306.90 182.16 C 301.62 181.98 296.34 181.59 291.06 181.70 C 286.00 181.82 280.99 179.86 275.95 181.00 C 270.61 182.15 265.23 183.11 259.78 183.53 C 255.18 183.70 250.59 183.28 246.02 182.88 C 242.01 183.00 237.96 183.19 234.06 182.09 C 229.52 181.27 224.87 181.26 220.36 180.27 C 219.86 175.32 219.24 170.27 220.21 165.34 C 221.47 160.86 219.56 156.35 219.64 151.83 C 222.00 149.91 224.93 149.18 227.93 149.55 L 228.64 149.56 M 226.84 151.56 C 226.34 153.95 225.89 156.36 225.90 158.81 C 221.68 164.77 220.74 173.07 223.90 179.69 C 225.12 179.51 226.34 179.34 227.57 179.18 C 228.29 178.99 229.73 178.63 230.45 178.44 C 231.05 169.62 230.97 160.72 230.08 151.92 C 229.27 151.83 227.65 151.65 226.84 151.56 Z" />
</g>
<g id="#f4d172ff">
<path fill="#f4d172" opacity="1.00" d=" M 263.39 145.52 C 272.26 144.93 281.15 145.88 290.03 145.70 C 296.04 145.19 302.02 146.24 308.03 145.85 C 312.95 146.83 318.04 146.02 322.92 147.02 C 324.57 148.13 326.03 149.60 326.59 151.57 C 325.63 153.70 324.76 155.87 324.17 158.13 C 321.57 158.89 318.94 159.98 316.18 159.66 C 312.96 159.31 309.77 158.49 306.51 158.65 C 301.72 160.21 297.20 164.47 291.90 162.37 C 289.29 160.22 287.23 156.50 283.47 156.49 C 280.69 156.39 277.82 156.14 275.59 154.29 C 276.94 152.61 278.31 150.95 279.70 149.31 C 283.47 150.41 287.34 151.67 290.07 154.66 C 291.76 153.37 293.45 152.07 295.13 150.75 C 288.11 144.61 278.20 147.07 269.89 148.27 C 267.30 148.95 265.40 146.71 263.39 145.52 Z" />
</g>
<g id="#fc9381ff">
<path fill="#fc9381" opacity="1.00" d=" M 551.74 162.58 C 550.89 156.78 551.67 150.87 553.16 145.25 C 554.02 146.65 555.49 147.90 555.44 149.68 C 555.55 154.22 554.72 158.98 551.74 162.58 Z" />
</g>
<g id="#fffaefff">
<path fill="#fffaef" opacity="1.00" d=" M 638.85 146.90 C 640.13 146.67 641.41 146.44 642.70 146.21 C 644.25 150.01 645.75 153.91 646.16 158.03 C 646.33 160.62 644.55 162.75 643.36 164.89 C 643.94 166.02 644.53 167.14 645.11 168.28 C 645.06 170.01 644.81 171.73 644.57 173.45 C 643.17 173.60 641.78 173.76 640.40 173.92 C 640.44 172.69 640.49 171.46 640.55 170.23 C 641.14 162.36 638.04 154.72 638.85 146.90 Z" />
</g>
<g id="#e0a226ee">
<path fill="#e0a226" opacity="0.93" d=" M 219.64 151.83 C 220.54 149.96 220.77 147.29 223.04 146.51 C 225.24 146.35 226.95 147.69 227.93 149.55 C 224.93 149.18 222.00 149.91 219.64 151.83 Z" />
</g>
<g id="#f3ac43fe">
<path fill="#f3ac43" opacity="1.00" d=" M 335.85 148.01 C 337.96 147.09 341.01 146.13 342.50 148.61 C 344.31 152.19 343.14 156.45 343.74 160.30 C 342.96 155.26 340.06 150.86 335.85 148.01 Z" />
</g>
<g id="#fffffeff">
<path fill="#fffffe" opacity="1.00" d=" M 332.45 149.56 C 333.09 149.45 334.37 149.21 335.01 149.10 C 336.46 151.91 337.68 154.89 337.93 158.07 C 338.72 165.48 338.55 173.04 337.25 180.38 C 336.89 180.62 336.16 181.10 335.80 181.34 C 334.07 180.92 331.45 181.38 330.81 179.24 C 329.87 176.97 329.90 174.46 329.79 172.05 C 329.71 164.50 329.61 156.70 332.45 149.56 Z" />
<path fill="#fffffe" opacity="1.00" d=" M 226.84 151.56 C 227.65 151.65 229.27 151.83 230.08 151.92 C 230.97 160.72 231.05 169.62 230.45 178.44 C 229.73 178.63 228.29 178.99 227.57 179.18 C 225.42 172.60 226.12 165.61 225.90 158.81 C 225.89 156.36 226.34 153.95 226.84 151.56 Z" />
<path fill="#fffffe" opacity="1.00" d=" M 234.20 152.23 C 235.39 152.20 236.58 152.17 237.78 152.15 C 238.79 159.74 238.84 167.42 240.01 174.99 C 239.77 176.50 239.44 177.99 239.11 179.48 C 236.83 178.74 234.42 177.50 234.22 174.81 C 233.03 167.37 233.05 159.68 234.20 152.23 Z" />
<path fill="#fffffe" opacity="1.00" d=" M 291.90 162.37 C 297.20 164.47 301.72 160.21 306.51 158.65 C 307.65 160.08 308.60 161.73 310.10 162.83 C 312.13 163.78 314.41 164.00 316.59 164.50 C 317.31 166.42 318.05 168.33 318.81 170.24 C 313.86 166.56 307.53 167.96 301.86 166.70 C 300.99 166.02 300.12 165.35 299.25 164.68 C 294.40 166.63 289.18 165.69 284.23 164.74 C 284.46 163.61 284.70 162.50 284.95 161.38 C 287.24 161.82 289.58 162.03 291.90 162.37 Z" />
</g>
<g id="#83c3f0ff">
<path fill="#83c3f0" opacity="1.00" d=" M 478.90 148.89 C 480.37 149.11 481.84 149.34 483.31 149.56 C 483.80 151.81 484.33 154.06 484.75 156.33 C 485.21 161.29 484.75 166.28 484.50 171.24 C 484.20 168.34 483.76 165.47 483.37 162.59 C 481.50 162.34 479.63 162.09 477.77 161.82 C 478.48 157.55 479.16 153.24 478.90 148.89 Z" />
</g>
<g id="#f5f8f4ff">
<path fill="#f5f8f4" opacity="1.00" d=" M 508.88 148.66 L 509.76 148.67 C 510.63 148.78 512.36 149.00 513.22 149.11 C 513.17 150.33 513.06 151.54 512.91 152.75 C 511.02 154.83 508.16 154.89 505.69 154.02 C 506.63 152.16 507.70 150.37 508.88 148.66 Z" />
</g>
<g id="#fffefdff">
<path fill="#fffefd" opacity="1.00" d=" M 324.17 158.13 C 324.76 155.87 325.63 153.70 326.59 151.57 C 328.28 160.67 329.77 170.07 328.23 179.30 C 327.29 178.66 326.36 178.02 325.44 177.38 C 324.89 170.97 324.78 164.54 324.17 158.13 Z" />
</g>
<g id="#ff5e1eff">
<path fill="#ff5e1e" opacity="1.00" d=" M 383.33 154.07 C 385.43 161.35 388.27 168.37 391.07 175.40 C 389.16 173.17 386.97 171.15 385.48 168.59 C 384.30 166.35 384.13 163.77 383.68 161.32 C 381.79 161.62 379.90 161.92 378.01 162.22 C 377.46 161.03 376.91 159.84 376.35 158.66 C 378.22 157.45 380.33 156.67 382.46 156.04 C 382.68 155.55 383.11 154.56 383.33 154.07 Z" />
</g>
<g id="#fdfefdff">
<path fill="#fdfefd" opacity="1.00" d=" M 507.97 160.43 C 511.14 160.25 513.50 157.90 516.10 156.37 C 516.71 158.04 518.08 159.66 517.67 161.53 C 516.60 162.82 515.24 163.80 513.95 164.84 C 511.20 165.40 508.31 165.55 505.74 166.73 C 503.22 168.16 501.22 170.30 498.98 172.10 C 497.74 169.75 496.78 166.94 498.35 164.48 C 499.96 160.69 504.56 160.92 507.97 160.43 Z" />
<path fill="#fdfefd" opacity="1.00" d=" M 342.97 191.62 C 343.86 192.52 345.07 193.30 345.24 194.68 C 346.45 200.90 346.62 207.36 345.70 213.64 C 344.34 211.65 344.85 209.17 344.66 206.92 C 344.69 201.76 343.55 196.72 342.97 191.62 Z" />
<path fill="#fdfefd" opacity="1.00" d=" M 536.31 210.47 C 544.81 210.53 553.27 209.81 561.66 208.49 C 560.66 209.64 559.44 210.64 557.86 210.76 C 550.75 211.90 543.51 211.86 536.34 211.54 C 536.33 211.28 536.32 210.74 536.31 210.47 Z" />
</g>
<g id="#f2d46cff">
<path fill="#f2d46c" opacity="1.00" d=" M 278.52 157.97 C 280.73 158.97 282.83 160.19 284.95 161.38 C 284.70 162.50 284.46 163.61 284.23 164.74 C 289.18 165.69 294.40 166.63 299.25 164.68 C 300.12 165.35 300.99 166.02 301.86 166.70 C 303.34 168.97 305.05 171.16 306.04 173.71 C 306.02 176.27 304.47 179.35 301.65 179.63 C 298.28 180.54 294.96 179.14 291.71 178.45 C 289.06 177.85 286.54 179.82 283.90 179.21 C 281.17 178.52 278.65 177.24 276.13 176.05 C 275.92 173.10 275.67 170.00 273.89 167.51 C 275.41 166.93 276.92 166.35 278.44 165.76 C 277.30 164.57 276.16 163.39 275.01 162.22 C 276.18 160.81 277.35 159.39 278.52 157.97 Z" />
</g>
<g id="#f5d078ff">
<path fill="#f5d078" opacity="1.00" d=" M 223.90 179.69 C 220.74 173.07 221.68 164.77 225.90 158.81 C 226.12 165.61 225.42 172.60 227.57 179.18 C 226.34 179.34 225.12 179.51 223.90 179.69 Z" />
</g>
<g id="#f84741ff">
<path fill="#f84741" opacity="1.00" d=" M 530.79 158.59 C 531.69 161.73 532.65 164.92 532.54 168.23 C 531.87 180.66 533.30 193.09 534.78 205.42 L 534.79 206.21 C 534.69 210.74 535.23 215.88 538.83 219.08 C 543.78 220.34 548.97 219.63 554.03 219.75 C 557.46 219.52 561.60 219.94 564.24 217.27 C 565.34 213.33 564.71 209.06 565.70 205.05 C 566.24 204.71 567.32 204.03 567.86 203.69 C 566.41 208.02 567.40 212.36 567.69 216.74 C 565.89 221.39 560.04 220.77 555.98 221.22 C 547.95 221.11 539.64 221.88 531.91 219.26 L 532.02 218.50 C 532.74 214.95 532.78 211.33 532.66 207.73 C 533.04 202.42 531.88 197.19 531.36 191.94 C 530.20 183.34 530.22 174.65 530.05 165.99 C 529.98 163.50 530.00 160.98 530.79 158.59 Z" />
</g>
<g id="#fffbf6ff">
<path fill="#fffbf6" opacity="1.00" d=" M 251.11 160.08 C 252.25 160.12 253.39 160.17 254.54 160.22 C 254.94 162.14 255.44 164.06 255.65 166.03 C 254.77 167.66 252.89 166.55 251.49 166.56 C 251.27 164.40 251.15 162.24 251.11 160.08 Z" />
</g>
<g id="#ff7b3cff">
<path fill="#ff7b3c" opacity="1.00" d=" M 378.01 162.22 C 379.90 161.92 381.79 161.62 383.68 161.32 C 384.13 163.77 384.30 166.35 385.48 168.59 C 386.97 171.15 389.16 173.17 391.07 175.40 C 393.76 181.57 395.65 188.09 398.68 194.14 C 396.70 195.21 394.55 195.94 392.28 195.66 C 391.82 194.44 391.36 193.23 390.91 192.02 C 390.08 192.68 389.25 193.35 388.44 194.03 C 386.78 189.27 385.57 184.39 384.46 179.48 C 382.63 173.62 380.32 167.91 378.01 162.22 Z" />
</g>
<g id="#fffcf7ff">
<path fill="#fffcf7" opacity="1.00" d=" M 270.75 163.21 C 272.17 162.88 273.59 162.55 275.01 162.22 C 276.16 163.39 277.30 164.57 278.44 165.76 C 276.92 166.35 275.41 166.93 273.89 167.51 C 272.86 166.06 271.79 164.65 270.75 163.21 Z" />
</g>
<g id="#9cceefff">
<path fill="#9cceef" opacity="1.00" d=" M 475.89 183.08 C 477.99 176.16 476.49 168.86 477.77 161.82 C 479.63 162.09 481.50 162.34 483.37 162.59 C 483.76 165.47 484.20 168.34 484.50 171.24 C 483.99 181.91 482.74 192.58 483.41 203.29 C 481.74 202.27 479.95 201.36 478.55 199.98 C 479.18 198.68 479.96 197.46 480.71 196.23 C 476.04 194.88 471.15 194.81 466.34 194.92 C 466.14 188.48 465.66 182.04 464.90 175.65 C 464.77 172.83 464.86 169.98 465.25 167.18 C 465.69 166.27 466.17 165.38 466.65 164.48 C 468.58 165.69 470.57 166.82 472.66 167.73 C 472.55 172.49 472.13 177.24 471.95 181.99 C 473.26 182.35 474.57 182.73 475.89 183.08 Z" />
</g>
<g id="#fdf5e7ff">
<path fill="#fdf5e7" opacity="1.00" d=" M 261.60 163.06 C 264.05 163.36 266.50 163.68 268.87 164.37 C 270.31 166.69 266.86 167.48 265.19 166.87 C 263.18 166.60 262.11 164.85 261.60 163.06 Z" />
</g>
<g id="#f1a62cff">
<path fill="#f1a62c" opacity="1.00" d=" M 340.86 176.30 C 342.04 172.49 342.88 168.57 343.80 164.69 C 342.96 170.47 346.16 177.79 341.30 182.35 C 339.34 184.46 336.54 183.08 334.43 182.04 C 334.77 181.86 335.46 181.51 335.80 181.34 C 336.16 181.10 336.89 180.62 337.25 180.38 C 338.67 179.26 340.35 178.16 340.86 176.30 Z" />
</g>
<g id="#5e8f60ff">
<path fill="#5e8f60" opacity="1.00" d=" M 628.77 167.52 C 631.06 167.23 633.40 166.59 635.71 167.04 C 637.54 167.72 638.98 169.11 640.55 170.23 C 640.49 171.46 640.44 172.69 640.40 173.92 C 641.78 173.76 643.17 173.60 644.57 173.45 C 644.81 171.73 645.06 170.01 645.11 168.28 C 645.75 169.46 646.40 170.86 647.88 171.13 C 652.04 172.36 656.46 173.91 659.19 177.49 C 658.41 180.50 657.49 183.58 658.87 186.61 C 658.92 191.00 658.65 195.39 658.82 199.78 C 653.91 199.58 649.07 200.45 644.24 201.19 C 638.88 202.08 633.05 200.94 628.16 203.85 C 638.32 207.32 648.92 203.63 659.01 201.76 C 659.74 207.08 659.53 212.97 656.60 217.63 C 649.15 221.55 640.27 220.10 632.37 218.48 C 628.21 217.90 625.36 214.61 622.74 211.66 C 622.25 207.92 623.31 204.16 623.14 200.40 C 623.94 200.37 624.74 200.33 625.55 200.30 C 625.36 191.25 625.74 182.22 627.06 173.25 C 627.56 171.32 628.18 169.42 628.77 167.52 M 640.71 183.01 C 641.53 182.99 643.16 182.95 643.98 182.93 C 644.42 181.36 646.09 179.10 643.92 178.10 C 641.59 178.54 640.64 180.87 640.71 183.01 M 636.91 196.68 C 634.22 197.29 630.41 196.06 628.78 198.91 C 631.21 198.77 633.63 198.40 636.05 198.11 C 642.71 197.18 649.41 199.03 656.06 197.79 C 656.18 196.49 656.30 195.19 656.42 193.90 C 649.72 192.92 643.35 195.40 636.91 196.68 Z" />
</g>
<g id="#0099b2ff">
<path fill="#0099b2" opacity="1.00" d=" M 442.72 169.91 C 447.78 177.12 452.77 184.43 456.46 192.45 C 457.55 195.35 458.83 198.17 460.24 200.93 C 457.41 198.02 454.86 194.85 452.59 191.48 C 451.43 189.37 451.54 186.96 451.51 184.64 C 447.12 185.62 443.83 188.89 439.93 190.90 C 435.94 193.02 431.70 194.90 428.58 198.28 C 430.55 198.59 432.54 198.89 434.53 199.17 C 434.82 201.04 435.20 202.90 435.64 204.74 C 434.77 205.70 433.90 206.67 433.05 207.64 C 428.96 200.62 423.41 194.58 419.47 187.48 C 417.25 183.63 414.64 180.00 412.84 175.93 C 415.49 177.15 417.69 179.08 419.22 181.57 C 421.87 181.08 423.52 179.10 424.11 176.54 C 426.46 178.93 429.13 180.98 431.95 182.80 C 433.08 182.09 434.23 181.38 435.35 180.62 C 439.35 178.36 441.45 174.15 442.72 169.91 Z" />
</g>
<g id="#fb796aff">
<path fill="#fb796a" opacity="1.00" d=" M 549.07 175.42 C 553.98 175.96 558.09 173.00 562.12 170.70 C 565.86 173.01 565.51 178.80 561.54 180.64 C 558.61 180.91 555.58 179.53 552.78 180.89 C 555.99 184.16 560.92 184.10 564.59 186.50 C 567.71 191.41 566.82 197.67 566.15 203.16 C 556.36 201.54 546.60 205.18 536.74 204.07 C 537.25 196.07 539.22 187.45 545.01 181.55 C 545.57 184.75 546.13 187.96 546.93 191.12 C 548.62 191.89 550.54 191.80 552.36 192.03 C 551.75 190.54 551.10 189.08 550.43 187.63 C 548.39 183.87 549.65 179.48 549.07 175.42 Z" />
</g>
<g id="#a29a9fbf">
<path fill="#a29a9f" opacity="0.75" d=" M 523.41 184.35 C 523.09 180.45 523.17 176.53 523.60 172.65 C 523.92 176.51 524.61 180.57 523.41 184.35 Z" />
</g>
<g id="#1082e2ff">
<path fill="#1082e2" opacity="1.00" d=" M 464.90 175.65 C 465.66 182.04 466.14 188.48 466.34 194.92 C 466.32 198.79 466.91 202.66 466.51 206.53 C 468.31 206.71 470.12 206.88 471.94 206.91 C 471.42 209.02 470.89 211.13 470.35 213.24 C 472.86 214.81 475.70 214.47 478.32 213.36 C 478.45 211.65 478.62 209.94 478.81 208.24 C 480.25 207.87 481.69 207.46 483.08 206.91 L 483.75 206.67 C 483.28 211.23 487.69 216.73 483.95 220.48 C 478.71 220.74 473.32 221.11 468.15 220.13 C 466.18 219.54 463.90 218.36 463.96 215.97 C 462.96 205.96 465.39 195.99 464.93 185.97 C 464.73 182.53 464.63 179.08 464.90 175.65 Z" />
</g>
<g id="#f2be41ff">
<path fill="#f2be41" opacity="1.00" d=" M 306.90 182.16 C 310.26 182.37 312.82 179.87 315.36 178.05 C 318.84 179.43 322.09 181.29 325.31 183.19 C 314.22 183.87 303.11 183.95 292.01 183.74 C 281.27 184.21 270.51 183.83 259.78 183.53 C 265.23 183.11 270.61 182.15 275.95 181.00 C 280.99 179.86 286.00 181.82 291.06 181.70 C 296.34 181.59 301.62 181.98 306.90 182.16 Z" />
</g>
<g id="#17b390ff">
<path fill="#17b390" opacity="1.00" d=" M 579.89 187.06 C 583.88 184.18 586.54 179.69 591.15 177.65 C 592.11 178.25 593.09 178.85 594.09 179.44 C 593.28 180.23 592.47 180.99 591.67 181.77 C 592.53 183.94 594.22 186.42 592.86 188.75 C 591.06 191.84 588.48 194.37 586.48 197.32 C 583.14 197.49 579.81 197.76 576.47 197.89 C 576.24 196.28 575.79 194.72 575.28 193.19 C 576.47 190.91 577.75 188.58 579.89 187.06 Z" />
</g>
<g id="#f2e9e1ff">
<path fill="#f2e9e1" opacity="1.00" d=" M 640.71 183.01 C 640.64 180.87 641.59 178.54 643.92 178.10 C 646.09 179.10 644.42 181.36 643.98 182.93 C 643.16 182.95 641.53 182.99 640.71 183.01 Z" />
</g>
<g id="#e1b035ef">
<path fill="#e1b035" opacity="0.94" d=" M 220.36 180.27 C 224.87 181.26 229.52 181.27 234.06 182.09 C 230.24 181.69 226.71 183.45 223.05 184.19 C 221.23 183.97 220.79 181.74 220.36 180.27 Z" />
</g>
<g id="#088a65ff">
<path fill="#088a65" opacity="1.00" d=" M 599.49 185.65 C 603.51 186.53 607.81 186.72 611.50 184.58 C 611.69 187.39 611.66 191.15 614.65 192.51 C 614.83 194.02 614.99 195.53 615.16 197.04 L 614.38 196.90 L 613.73 196.84 C 611.49 196.46 609.27 196.94 607.07 197.30 C 603.65 197.88 600.19 197.34 596.75 197.25 C 597.05 196.65 597.64 195.45 597.94 194.85 C 599.65 194.70 601.37 194.54 603.10 194.40 C 602.46 191.28 601.23 188.32 599.49 185.65 Z" />
</g>
<g id="#fb836bff">
<path fill="#fb836b" opacity="1.00" d=" M 319.11 186.47 C 324.31 186.27 329.55 185.77 334.75 186.21 C 335.83 186.65 336.91 187.14 337.99 187.64 C 337.19 188.90 336.42 190.18 335.66 191.47 C 330.50 191.84 326.97 195.67 324.35 199.75 C 320.43 200.23 316.86 202.43 312.82 202.03 C 314.91 196.65 317.93 191.72 320.80 186.73 C 320.38 186.67 319.53 186.53 319.11 186.47 Z" />
</g>
<g id="#f84241ff">
<path fill="#f84241" opacity="1.00" d=" M 334.75 186.21 C 339.36 186.24 343.95 187.77 348.55 186.62 C 351.45 185.88 354.95 186.96 356.10 189.91 C 358.19 197.04 357.04 204.54 356.44 211.80 C 355.98 214.02 355.52 217.17 352.82 217.68 C 347.21 216.84 341.50 216.34 335.82 216.44 C 320.62 217.98 305.34 218.98 290.06 218.37 C 273.80 216.89 257.47 218.08 241.19 218.57 C 239.61 218.29 238.04 217.99 236.48 217.65 C 242.90 216.03 249.57 216.50 256.12 216.48 C 265.52 216.80 274.93 216.60 284.33 216.67 C 286.55 216.76 288.78 216.75 291.01 216.64 C 294.78 216.60 298.55 216.47 302.32 216.48 C 308.47 216.80 314.55 215.54 320.70 215.59 C 327.41 215.64 334.09 214.76 340.79 214.52 C 345.51 214.32 350.12 213.21 354.50 211.48 C 355.41 204.13 355.11 196.65 353.53 189.41 C 348.65 188.55 343.68 188.77 338.80 188.01 L 337.99 187.64 C 336.91 187.14 335.83 186.65 334.75 186.21 Z" />
</g>
<g id="#fd7253ff">
<path fill="#fd7253" opacity="1.00" d=" M 201.46 189.40 C 203.49 185.61 207.93 187.93 211.08 188.45 C 208.32 188.97 205.37 189.12 202.92 190.60 C 202.05 193.73 202.60 197.03 202.79 200.22 C 203.25 206.24 209.36 208.28 213.65 211.15 L 214.00 211.67 C 212.27 212.34 209.89 212.25 208.85 214.04 C 207.84 215.49 208.53 217.29 208.62 218.89 C 209.81 218.50 210.99 218.11 212.17 217.70 L 211.87 218.56 C 210.47 221.49 204.93 221.31 203.03 218.80 C 202.34 213.75 202.83 208.53 201.48 203.57 C 199.88 198.97 200.92 194.08 201.46 189.40 Z" />
</g>
<g id="#fda88eff">
<path fill="#fda88e" opacity="1.00" d=" M 214.01 187.39 C 217.91 187.43 221.83 186.67 225.71 187.23 C 229.98 188.36 234.29 189.45 238.73 189.63 C 239.38 189.76 240.68 190.03 241.32 190.16 C 241.01 192.85 241.03 195.59 241.61 198.25 C 241.03 198.92 240.44 199.59 239.86 200.26 C 240.81 201.66 241.77 203.07 242.77 204.45 C 238.86 204.63 234.94 205.13 231.15 206.13 C 226.66 207.43 223.90 211.57 221.76 215.43 C 223.20 206.69 222.52 197.64 221.01 188.95 C 220.23 188.96 218.68 188.98 217.90 188.99 C 216.76 194.69 218.24 200.37 219.29 205.95 C 218.08 205.61 216.87 205.28 215.66 204.94 C 215.42 199.08 216.90 192.84 214.01 187.39 Z" />
</g>
<g id="#fc735cff">
<path fill="#fc735c" opacity="1.00" d=" M 225.71 187.23 C 237.38 187.59 249.01 186.55 260.68 186.58 C 265.01 187.39 268.94 189.53 273.20 190.58 C 276.00 190.63 278.61 189.27 281.26 188.51 C 283.38 190.94 285.91 193.07 287.42 195.98 C 291.40 196.10 295.36 195.58 299.27 194.86 C 297.46 191.78 294.37 190.19 290.84 190.13 C 291.05 189.75 291.48 189.00 291.70 188.62 C 297.61 188.03 303.55 188.40 309.46 188.76 C 312.33 189.10 315.02 187.99 317.55 186.79 C 317.94 186.71 318.72 186.55 319.11 186.47 C 319.53 186.53 320.38 186.67 320.80 186.73 C 317.93 191.72 314.91 196.65 312.82 202.03 C 308.83 201.89 304.88 202.44 300.92 202.84 C 298.19 203.13 296.28 200.65 293.84 199.86 C 292.31 199.72 290.79 199.94 289.28 200.06 C 285.08 197.51 280.07 195.84 275.14 196.69 C 274.16 197.27 273.33 198.05 272.46 198.78 C 271.54 198.61 270.62 198.44 269.69 198.32 C 267.40 193.38 262.45 190.49 257.47 188.87 C 251.28 187.45 244.89 188.63 238.73 189.63 C 234.29 189.45 229.98 188.36 225.71 187.23 Z" />
</g>
<g id="#fa5743ff">
<path fill="#fa5743" opacity="1.00" d=" M 260.68 186.58 C 279.63 186.63 298.62 186.19 317.55 186.79 C 315.02 187.99 312.33 189.10 309.46 188.76 C 303.55 188.40 297.61 188.03 291.70 188.62 C 291.48 189.00 291.05 189.75 290.84 190.13 C 294.37 190.19 297.46 191.78 299.27 194.86 C 295.36 195.58 291.40 196.10 287.42 195.98 C 285.91 193.07 283.38 190.94 281.26 188.51 C 278.61 189.27 276.00 190.63 273.20 190.58 C 268.94 189.53 265.01 187.39 260.68 186.58 Z" />
</g>
<g id="#feb795ff">
<path fill="#feb795" opacity="1.00" d=" M 211.08 188.45 C 211.61 188.37 212.69 188.20 213.22 188.11 C 212.15 191.90 212.12 195.88 212.39 199.78 C 209.36 201.46 205.94 201.74 202.79 200.22 C 202.60 197.03 202.05 193.73 202.92 190.60 C 205.37 189.12 208.32 188.97 211.08 188.45 Z" />
</g>
<g id="#fefdfcff">
<path fill="#fefdfc" opacity="1.00" d=" M 213.22 188.11 L 214.01 187.39 C 216.90 192.84 215.42 199.08 215.66 204.94 C 215.71 208.07 215.84 211.19 215.85 214.32 C 215.21 213.44 214.60 212.56 214.00 211.67 L 213.65 211.15 C 213.25 207.36 212.76 203.57 212.39 199.78 C 212.12 195.88 212.15 191.90 213.22 188.11 Z" />
</g>
<g id="#fd9a85ff">
<path fill="#fd9a85" opacity="1.00" d=" M 238.73 189.63 C 244.89 188.63 251.28 187.45 257.47 188.87 C 262.45 190.49 267.40 193.38 269.69 198.32 C 260.47 200.89 250.96 198.71 241.61 198.25 C 241.03 195.59 241.01 192.85 241.32 190.16 C 240.68 190.03 239.38 189.76 238.73 189.63 Z" />
</g>
<g id="#fb7267ff">
<path fill="#fb7267" opacity="1.00" d=" M 338.80 188.01 C 343.68 188.77 348.65 188.55 353.53 189.41 C 355.11 196.65 355.41 204.13 354.50 211.48 C 350.12 213.21 345.51 214.32 340.79 214.52 C 334.09 214.76 327.41 215.64 320.70 215.59 C 314.55 215.54 308.47 216.80 302.32 216.48 C 303.74 214.26 305.30 212.13 306.88 210.02 C 306.33 208.94 305.79 207.85 305.26 206.77 C 303.57 208.07 302.19 210.62 299.75 210.32 C 295.52 209.89 291.30 209.15 287.03 209.35 C 287.14 209.86 287.36 210.89 287.47 211.40 C 289.27 212.79 291.05 214.20 292.80 215.65 C 292.35 215.90 291.46 216.39 291.01 216.64 C 288.78 216.75 286.55 216.76 284.33 216.67 C 280.06 215.96 275.81 215.14 271.49 214.81 C 265.53 215.06 263.25 208.43 261.49 203.83 C 263.13 203.88 264.77 203.88 266.41 203.76 C 266.98 204.86 267.56 205.96 268.14 207.07 C 270.64 207.37 273.37 207.11 275.65 208.36 C 276.85 210.20 277.38 212.40 278.54 214.27 C 279.97 215.12 281.85 214.74 283.46 214.96 C 284.15 212.48 284.86 210.00 285.58 207.53 C 289.15 207.40 292.71 207.28 296.27 207.01 C 305.21 205.85 314.21 205.50 323.14 204.29 C 323.54 202.77 323.92 201.25 324.35 199.75 C 326.97 195.67 330.50 191.84 335.66 191.47 C 336.98 197.65 337.52 203.95 337.73 210.26 C 337.92 211.64 337.70 213.95 339.60 214.18 C 340.15 205.53 342.13 196.36 338.80 188.01 M 342.97 191.62 C 343.55 196.72 344.69 201.76 344.66 206.92 C 344.85 209.17 344.34 211.65 345.70 213.64 C 346.62 207.36 346.45 200.90 345.24 194.68 C 345.07 193.30 343.86 192.52 342.97 191.62 Z" />
</g>
<g id="#01b9c9ff">
<path fill="#01b9c9" opacity="1.00" d=" M 452.59 191.48 C 454.86 194.85 457.41 198.02 460.24 200.93 C 461.34 201.89 462.16 203.43 461.25 204.83 C 455.84 209.99 449.59 214.17 443.53 218.52 C 442.08 219.66 440.17 219.64 438.44 219.81 C 436.46 216.16 436.57 211.80 434.17 208.33 C 440.79 204.45 447.54 200.77 454.17 196.91 C 453.68 195.09 453.20 193.26 452.59 191.48 Z" />
</g>
<g id="#ff5314ff">
<path fill="#ff5314" opacity="1.00" d=" M 388.44 194.03 C 389.25 193.35 390.08 192.68 390.91 192.02 C 391.36 193.23 391.82 194.44 392.28 195.66 C 394.55 195.94 396.70 195.21 398.68 194.14 C 399.94 196.83 400.24 199.82 401.21 202.60 C 402.52 204.46 404.36 206.16 404.12 208.65 C 403.65 209.02 402.70 209.76 402.22 210.13 C 402.33 208.80 402.44 207.47 402.55 206.15 C 396.80 206.17 393.13 201.62 389.44 197.90 C 389.12 196.60 388.78 195.31 388.44 194.03 Z" />
</g>
<g id="#078748ff">
<path fill="#078748" opacity="1.00" d=" M 575.03 192.42 L 575.28 193.19 C 575.79 194.72 576.24 196.28 576.47 197.89 C 576.41 198.75 576.35 199.61 576.31 200.47 C 576.71 200.51 577.49 200.60 577.89 200.64 C 577.40 202.41 576.92 204.18 576.43 205.94 C 576.12 207.03 575.83 208.12 575.56 209.22 C 575.29 211.19 574.72 213.34 575.55 215.26 C 576.60 217.27 579.07 217.74 581.01 218.51 C 578.97 219.52 576.89 221.26 574.46 220.63 C 572.95 219.81 571.81 218.02 572.43 216.29 C 575.08 208.62 574.96 200.42 575.03 192.42 Z" />
</g>
<g id="#fff8eeff">
<path fill="#fff8ee" opacity="1.00" d=" M 636.91 196.68 C 643.35 195.40 649.72 192.92 656.42 193.90 C 656.30 195.19 656.18 196.49 656.06 197.79 C 649.41 199.03 642.71 197.18 636.05 198.11 C 633.63 198.40 631.21 198.77 628.78 198.91 C 630.41 196.06 634.22 197.29 636.91 196.68 Z" />
<path fill="#fff8ee" opacity="1.00" d=" M 644.24 201.19 C 649.07 200.45 653.91 199.58 658.82 199.78 C 658.87 200.28 658.96 201.27 659.01 201.76 C 648.92 203.63 638.32 207.32 628.16 203.85 C 633.05 200.94 638.88 202.08 644.24 201.19 Z" />
</g>
<g id="#fd9582ff">
<path fill="#fd9582" opacity="1.00" d=" M 272.46 198.78 C 273.33 198.05 274.16 197.27 275.14 196.69 C 280.07 195.84 285.08 197.51 289.28 200.06 C 283.66 200.38 278.00 199.70 272.46 198.78 Z" />
</g>
<g id="#d36a9dff">
<path fill="#d36a9d" opacity="1.00" d=" M 492.26 200.41 C 496.50 198.27 501.40 197.44 506.06 196.56 C 509.20 197.00 511.94 199.02 514.91 200.11 C 518.14 201.11 517.84 205.17 517.30 207.83 C 515.83 206.98 514.42 206.01 512.85 205.39 C 510.23 205.35 507.72 206.25 505.19 206.81 C 504.87 208.58 504.55 210.35 504.26 212.13 C 501.10 211.24 500.13 207.83 498.96 205.16 C 497.19 206.94 495.42 208.72 493.64 210.50 C 495.43 212.92 497.05 215.69 499.75 217.20 C 501.22 217.56 502.76 217.54 504.27 217.66 C 502.38 219.52 499.33 218.87 497.23 217.74 C 494.57 215.84 493.11 212.80 491.37 210.13 C 492.40 209.61 493.44 209.10 494.49 208.60 C 491.13 207.27 491.62 203.28 492.26 200.41 Z" />
</g>
<g id="#13af89ff">
<path fill="#13af89" opacity="1.00" d=" M 613.73 196.84 L 614.38 196.90 C 613.19 201.44 613.39 206.16 612.62 210.75 C 612.57 212.08 611.21 212.63 610.22 213.16 C 605.59 215.37 600.41 216.54 595.28 215.80 C 591.80 215.27 588.38 216.16 585.21 217.52 C 583.83 217.95 582.42 218.24 581.01 218.51 C 579.07 217.74 576.60 217.27 575.55 215.26 C 574.72 213.34 575.29 211.19 575.56 209.22 C 582.55 210.45 589.58 209.07 596.53 208.30 C 600.90 207.75 605.38 208.78 609.70 207.76 C 611.51 207.23 611.51 205.14 611.98 203.66 C 609.67 203.75 607.37 203.96 605.06 204.04 C 595.48 203.99 586.03 206.25 576.43 205.94 C 576.92 204.18 577.40 202.41 577.89 200.64 C 587.91 201.29 597.97 201.48 608.01 201.12 C 610.78 201.26 612.62 199.11 613.73 196.84 Z" />
</g>
<g id="#067a49ff">
<path fill="#067a49" opacity="1.00" d=" M 614.38 196.90 L 615.16 197.04 C 615.57 202.16 616.70 207.74 614.57 212.61 C 612.46 215.89 607.99 215.80 605.11 218.10 C 602.38 220.36 599.05 217.87 595.99 218.19 C 592.40 218.16 588.45 219.76 585.21 217.52 C 588.38 216.16 591.80 215.27 595.28 215.80 C 600.41 216.54 605.59 215.37 610.22 213.16 C 611.21 212.63 612.57 212.08 612.62 210.75 C 613.39 206.16 613.19 201.44 614.38 196.90 Z" />
</g>
<g id="#fd997cff">
<path fill="#fd997c" opacity="1.00" d=" M 202.79 200.22 C 205.94 201.74 209.36 201.46 212.39 199.78 C 212.76 203.57 213.25 207.36 213.65 211.15 C 209.36 208.28 203.25 206.24 202.79 200.22 Z" />
</g>
<g id="#ff8f4cff">
<path fill="#ff8f4c" opacity="1.00" d=" M 376.32 203.77 C 377.36 202.90 378.40 202.02 379.44 201.16 C 382.66 205.22 383.82 210.34 383.20 215.44 C 381.30 216.91 379.40 218.38 377.52 219.88 C 376.64 219.21 375.76 218.55 374.88 217.90 C 375.19 216.93 375.51 215.97 375.83 215.02 C 376.68 213.60 377.61 212.25 378.55 210.89 C 377.82 208.51 377.08 206.14 376.32 203.77 Z" />
</g>
<g id="#fd8d7aff">
<path fill="#fd8d7a" opacity="1.00" d=" M 266.41 203.76 C 274.78 201.97 283.33 203.05 291.68 204.32 C 293.38 204.87 294.78 206.05 296.27 207.01 C 292.71 207.28 289.15 207.40 285.58 207.53 C 284.86 210.00 284.15 212.48 283.46 214.96 C 281.85 214.74 279.97 215.12 278.54 214.27 C 277.38 212.40 276.85 210.20 275.65 208.36 C 273.37 207.11 270.64 207.37 268.14 207.07 C 267.56 205.96 266.98 204.86 266.41 203.76 Z" />
</g>
<g id="#fd8f79ff">
<path fill="#fd8f79" opacity="1.00" d=" M 231.15 206.13 C 234.94 205.13 238.86 204.63 242.77 204.45 C 243.12 204.46 243.82 204.49 244.16 204.50 C 244.35 205.92 244.55 207.35 244.76 208.78 C 242.97 208.11 241.14 206.53 239.15 207.32 C 236.59 208.12 234.18 209.31 231.72 210.35 C 232.41 212.33 233.08 214.31 233.77 216.29 C 229.70 217.08 225.43 217.40 221.42 216.10 L 221.76 215.43 C 223.90 211.57 226.66 207.43 231.15 206.13 Z" />
</g>
<g id="#fd9073ff">
<path fill="#fd9073" opacity="1.00" d=" M 215.66 204.94 C 216.87 205.28 218.08 205.61 219.29 205.95 C 219.87 209.05 220.35 212.16 221.00 215.25 C 217.99 215.81 215.01 216.55 212.17 217.70 C 210.99 218.11 209.81 218.50 208.62 218.89 C 208.53 217.29 207.84 215.49 208.85 214.04 C 209.89 212.25 212.27 212.34 214.00 211.67 C 214.60 212.56 215.21 213.44 215.85 214.32 C 215.84 211.19 215.71 208.07 215.66 204.94 Z" />
</g>
<g id="#d7a5c8ff">
<path fill="#d7a5c8" opacity="1.00" d=" M 493.64 210.50 C 495.42 208.72 497.19 206.94 498.96 205.16 C 500.13 207.83 501.10 211.24 504.26 212.13 C 504.94 212.21 506.30 212.39 506.98 212.47 C 505.97 214.15 505.03 215.86 504.27 217.66 C 502.76 217.54 501.22 217.56 499.75 217.20 C 497.05 215.69 495.43 212.92 493.64 210.50 Z" />
</g>
<g id="#fa6f66ff">
<path fill="#fa6f66" opacity="1.00" d=" M 534.79 206.21 C 545.09 205.76 555.62 208.11 565.70 205.05 C 564.71 209.06 565.34 213.33 564.24 217.27 C 561.60 219.94 557.46 219.52 554.03 219.75 C 548.97 219.63 543.78 220.34 538.83 219.08 C 535.23 215.88 534.69 210.74 534.79 206.21 M 536.31 210.47 C 536.32 210.74 536.33 211.28 536.34 211.54 C 543.51 211.86 550.75 211.90 557.86 210.76 C 559.44 210.64 560.66 209.64 561.66 208.49 C 553.27 209.81 544.81 210.53 536.31 210.47 Z" />
</g>
<g id="#50adf0ff">
<path fill="#50adf0" opacity="1.00" d=" M 471.94 206.91 C 475.83 206.62 479.70 206.12 483.60 205.96 L 483.08 206.91 C 481.69 207.46 480.25 207.87 478.81 208.24 C 478.62 209.94 478.45 211.65 478.32 213.36 C 475.70 214.47 472.86 214.81 470.35 213.24 C 470.89 211.13 471.42 209.02 471.94 206.91 Z" />
</g>
<g id="#fc664eff">
<path fill="#fc664e" opacity="1.00" d=" M 299.75 210.32 C 302.19 210.62 303.57 208.07 305.26 206.77 C 305.79 207.85 306.33 208.94 306.88 210.02 C 305.30 212.13 303.74 214.26 302.32 216.48 C 298.55 216.47 294.78 216.60 291.01 216.64 C 291.46 216.39 292.35 215.90 292.80 215.65 C 291.05 214.20 289.27 212.79 287.47 211.40 C 287.36 210.89 287.14 209.86 287.03 209.35 C 291.30 209.15 295.52 209.89 299.75 210.32 Z" />
</g>
<g id="#a91616b1">
<path fill="#a91616" opacity="0.69" d=" M 532.02 218.50 C 530.45 215.17 532.40 211.25 532.66 207.73 C 532.78 211.33 532.74 214.95 532.02 218.50 Z" />
</g>
</svg>
